M48
; DRILL file {KiCad 8.0.3-8.0.3-0~ubuntu23.10.1} date 2024-08-01T21:15:56-0400
; FORMAT={-:-/ absolute / inch / decimal}
; #@! TF.CreationDate,2024-08-01T21:15:56-04:00
; #@! TF.GenerationSoftware,Kicad,Pcbnew,8.0.3-8.0.3-0~ubuntu23.10.1
; #@! TF.FileFunction,Plated,1,4,PTH
FMAT,2
INCH
; #@! TA.AperFunction,Plated,PTH,ViaDrill
T1C0.0118
; #@! TA.AperFunction,Plated,PTH,ComponentDrill
T2C0.0394
; #@! TA.AperFunction,Plated,PTH,ComponentDrill
T3C0.0984
%
G90
G05
T1
X4.3898Y-3.8992
X4.4035Y-3.6909
X4.4035Y-3.7303
X4.4075Y-3.85
X4.5795Y-3.7555
X4.5795Y-3.7957
X4.5811Y-3.6783
X4.5815Y-3.7157
X4.6201Y-3.8874
X4.7409Y-3.8311
X4.7421Y-3.6689
X4.8071Y-3.7472
X4.8547Y-3.7571
X4.8685Y-3.8874
X4.874Y-3.6909
X4.9047Y-3.9287
X4.9689Y-3.7697
X4.9689Y-3.8091
T2
X4.3848Y-4.05
X4.4848Y-4.05
X4.5848Y-4.05
X4.6848Y-4.05
X4.7848Y-4.05
X4.8848Y-4.05
X4.9848Y-4.05
T3
X4.26Y-3.45
X4.26Y-4.05
X5.11Y-3.45
X5.11Y-4.05
M30
