%TF.GenerationSoftware,KiCad,Pcbnew,8.0.3-8.0.3-0~ubuntu23.10.1*%
%TF.CreationDate,2024-08-01T21:15:56-04:00*%
%TF.ProjectId,OPT4001,4f505434-3030-4312-9e6b-696361645f70,rev?*%
%TF.SameCoordinates,Original*%
%TF.FileFunction,Copper,L3,Inr*%
%TF.FilePolarity,Positive*%
%FSLAX46Y46*%
G04 Gerber Fmt 4.6, Leading zero omitted, Abs format (unit mm)*
G04 Created by KiCad (PCBNEW 8.0.3-8.0.3-0~ubuntu23.10.1) date 2024-08-01 21:15:56*
%MOMM*%
%LPD*%
G01*
G04 APERTURE LIST*
%TA.AperFunction,ComponentPad*%
%ADD10C,3.200000*%
%TD*%
%TA.AperFunction,ComponentPad*%
%ADD11O,1.700000X1.700000*%
%TD*%
%TA.AperFunction,ComponentPad*%
%ADD12C,1.700000*%
%TD*%
%TA.AperFunction,ViaPad*%
%ADD13C,0.600000*%
%TD*%
G04 APERTURE END LIST*
D10*
%TO.N,unconnected-(H1-Pad1)*%
%TO.C,H1*%
X108204000Y-87630000D03*
%TD*%
%TO.N,unconnected-(H4-Pad1)*%
%TO.C,H4*%
X129794000Y-87630000D03*
%TD*%
%TO.N,unconnected-(H3-Pad1)*%
%TO.C,H3*%
X108204000Y-102870000D03*
%TD*%
%TO.N,unconnected-(H2-Pad1)*%
%TO.C,H2*%
X129794000Y-102870000D03*
%TD*%
D11*
%TO.N,/INT*%
%TO.C,J3*%
X126614000Y-102870000D03*
%TO.N,GND*%
X124074000Y-102870000D03*
%TO.N,/SDA*%
X121534000Y-102870000D03*
%TO.N,/SCL*%
X118994000Y-102870000D03*
%TO.N,GND*%
X116454000Y-102870000D03*
%TO.N,+3.3V*%
X113914000Y-102870000D03*
D12*
%TO.N,VDD*%
X111374000Y-102870000D03*
%TD*%
D13*
%TO.N,GND*%
X111950000Y-97790000D03*
X116320000Y-96410000D03*
X116360000Y-93430000D03*
X126210000Y-96750000D03*
X111850000Y-93750000D03*
%TO.N,/SCL*%
X123310000Y-95430000D03*
X123800000Y-93750000D03*
%TO.N,VDD*%
X124580000Y-99790000D03*
X126210000Y-95750000D03*
X120420000Y-97310000D03*
X120450000Y-93190000D03*
X111850000Y-94750000D03*
X117350000Y-98740000D03*
%TO.N,/INT*%
X122100000Y-95180000D03*
X123660000Y-98740000D03*
%TO.N,+3.3V*%
X111500000Y-99040000D03*
X116370000Y-94380000D03*
%TO.N,Net-(JP1-B)*%
X116320000Y-95390000D03*
%TD*%
%TA.AperFunction,Conductor*%
%TO.N,VDD*%
G36*
X129766884Y-85207613D02*
G01*
X130052036Y-85224862D01*
X130059503Y-85225769D01*
X130338629Y-85276921D01*
X130345956Y-85278727D01*
X130544347Y-85340548D01*
X130616871Y-85363147D01*
X130623927Y-85365822D01*
X130882707Y-85482289D01*
X130889377Y-85485791D01*
X131044035Y-85579285D01*
X131132219Y-85632594D01*
X131138430Y-85636881D01*
X131361809Y-85811888D01*
X131367458Y-85816893D01*
X131568106Y-86017541D01*
X131573111Y-86023190D01*
X131748118Y-86246569D01*
X131752405Y-86252780D01*
X131899205Y-86495616D01*
X131902713Y-86502299D01*
X132019176Y-86761071D01*
X132021852Y-86768128D01*
X132106272Y-87039043D01*
X132108078Y-87046371D01*
X132159228Y-87325483D01*
X132160138Y-87332976D01*
X132175991Y-87595071D01*
X132175899Y-87597521D01*
X132177385Y-87621971D01*
X132177500Y-87625761D01*
X132177500Y-87649102D01*
X132177629Y-87649669D01*
X132190183Y-87675440D01*
X132190305Y-87675692D01*
X132200310Y-87696466D01*
X132206500Y-87723585D01*
X132206500Y-102868110D01*
X132206386Y-102871884D01*
X132189138Y-103157023D01*
X132188228Y-103164515D01*
X132137078Y-103443628D01*
X132135272Y-103450956D01*
X132050852Y-103721871D01*
X132048176Y-103728928D01*
X131931713Y-103987700D01*
X131928205Y-103994383D01*
X131781405Y-104237219D01*
X131777118Y-104243430D01*
X131602111Y-104466809D01*
X131597106Y-104472458D01*
X131396458Y-104673106D01*
X131390809Y-104678111D01*
X131167430Y-104853118D01*
X131161219Y-104857405D01*
X130918383Y-105004205D01*
X130911700Y-105007713D01*
X130652928Y-105124176D01*
X130645871Y-105126852D01*
X130374956Y-105211272D01*
X130367628Y-105213078D01*
X130088515Y-105264228D01*
X130081023Y-105265138D01*
X129795885Y-105282386D01*
X129792111Y-105282500D01*
X108205889Y-105282500D01*
X108202115Y-105282386D01*
X107916976Y-105265138D01*
X107909484Y-105264228D01*
X107630371Y-105213078D01*
X107623043Y-105211272D01*
X107352128Y-105126852D01*
X107345071Y-105124176D01*
X107086299Y-105007713D01*
X107079616Y-105004205D01*
X106836780Y-104857405D01*
X106830569Y-104853118D01*
X106607190Y-104678111D01*
X106601541Y-104673106D01*
X106400893Y-104472458D01*
X106395888Y-104466809D01*
X106220881Y-104243430D01*
X106216594Y-104237219D01*
X106209302Y-104225157D01*
X106069791Y-103994377D01*
X106066289Y-103987707D01*
X105949822Y-103728927D01*
X105947147Y-103721871D01*
X105862727Y-103450956D01*
X105860921Y-103443628D01*
X105847428Y-103370000D01*
X105809769Y-103164503D01*
X105808862Y-103157034D01*
X105791614Y-102871883D01*
X105791557Y-102869996D01*
X106398451Y-102869996D01*
X106398451Y-102870003D01*
X106418617Y-103139102D01*
X106418617Y-103139104D01*
X106478663Y-103402188D01*
X106478666Y-103402195D01*
X106577257Y-103653398D01*
X106712185Y-103887102D01*
X106712187Y-103887105D01*
X106712191Y-103887111D01*
X106880432Y-104098077D01*
X106880435Y-104098080D01*
X106880439Y-104098085D01*
X107078259Y-104281635D01*
X107078264Y-104281638D01*
X107078267Y-104281641D01*
X107219101Y-104377659D01*
X107301226Y-104433651D01*
X107544359Y-104550738D01*
X107684469Y-104593956D01*
X107802217Y-104630277D01*
X107802221Y-104630278D01*
X107802228Y-104630280D01*
X108069071Y-104670500D01*
X108069077Y-104670500D01*
X108338923Y-104670500D01*
X108338929Y-104670500D01*
X108605772Y-104630280D01*
X108863641Y-104550738D01*
X109106775Y-104433651D01*
X109329741Y-104281635D01*
X109527561Y-104098085D01*
X109695815Y-103887102D01*
X109830743Y-103653398D01*
X109929334Y-103402195D01*
X109936683Y-103370000D01*
X109960490Y-103265690D01*
X109988171Y-103226677D01*
X110035330Y-103218664D01*
X110074343Y-103246345D01*
X110081793Y-103263420D01*
X110100568Y-103333489D01*
X110200399Y-103547578D01*
X110259072Y-103631372D01*
X110259072Y-103631373D01*
X110891037Y-102999407D01*
X110908075Y-103062993D01*
X110973901Y-103177007D01*
X111066993Y-103270099D01*
X111181007Y-103335925D01*
X111244590Y-103352962D01*
X110612625Y-103984926D01*
X110696422Y-104043600D01*
X110696420Y-104043600D01*
X110910510Y-104143431D01*
X110910512Y-104143432D01*
X111138666Y-104204566D01*
X111138682Y-104204569D01*
X111373998Y-104225157D01*
X111374002Y-104225157D01*
X111609317Y-104204569D01*
X111609333Y-104204566D01*
X111837487Y-104143432D01*
X111837489Y-104143431D01*
X112051575Y-104043601D01*
X112135372Y-103984925D01*
X111503409Y-103352962D01*
X111566993Y-103335925D01*
X111681007Y-103270099D01*
X111774099Y-103177007D01*
X111839925Y-103062993D01*
X111856962Y-102999409D01*
X112488925Y-103631372D01*
X112547601Y-103547575D01*
X112647431Y-103333489D01*
X112647432Y-103333487D01*
X112708566Y-103105333D01*
X112708569Y-103105317D01*
X112729157Y-102870002D01*
X112729157Y-102869999D01*
X112858417Y-102869999D01*
X112858417Y-102870000D01*
X112878699Y-103075930D01*
X112878700Y-103075935D01*
X112938766Y-103273949D01*
X112938768Y-103273954D01*
X113036311Y-103456444D01*
X113036319Y-103456455D01*
X113167588Y-103616408D01*
X113167591Y-103616411D01*
X113212660Y-103653398D01*
X113327550Y-103747685D01*
X113327553Y-103747686D01*
X113327555Y-103747688D01*
X113402912Y-103787967D01*
X113510046Y-103845232D01*
X113708066Y-103905300D01*
X113914000Y-103925583D01*
X114119934Y-103905300D01*
X114317954Y-103845232D01*
X114500450Y-103747685D01*
X114660410Y-103616410D01*
X114791685Y-103456450D01*
X114889232Y-103273954D01*
X114949300Y-103075934D01*
X114969583Y-102870000D01*
X114969583Y-102869999D01*
X115398417Y-102869999D01*
X115398417Y-102870000D01*
X115418699Y-103075930D01*
X115418700Y-103075935D01*
X115478766Y-103273949D01*
X115478768Y-103273954D01*
X115576311Y-103456444D01*
X115576319Y-103456455D01*
X115707588Y-103616408D01*
X115707591Y-103616411D01*
X115752660Y-103653398D01*
X115867550Y-103747685D01*
X115867553Y-103747686D01*
X115867555Y-103747688D01*
X115942912Y-103787967D01*
X116050046Y-103845232D01*
X116248066Y-103905300D01*
X116454000Y-103925583D01*
X116659934Y-103905300D01*
X116857954Y-103845232D01*
X117040450Y-103747685D01*
X117200410Y-103616410D01*
X117331685Y-103456450D01*
X117429232Y-103273954D01*
X117489300Y-103075934D01*
X117509583Y-102870000D01*
X117509583Y-102869999D01*
X117938417Y-102869999D01*
X117938417Y-102870000D01*
X117958699Y-103075930D01*
X117958700Y-103075935D01*
X118018766Y-103273949D01*
X118018768Y-103273954D01*
X118116311Y-103456444D01*
X118116319Y-103456455D01*
X118247588Y-103616408D01*
X118247591Y-103616411D01*
X118292660Y-103653398D01*
X118407550Y-103747685D01*
X118407553Y-103747686D01*
X118407555Y-103747688D01*
X118482912Y-103787967D01*
X118590046Y-103845232D01*
X118788066Y-103905300D01*
X118994000Y-103925583D01*
X119199934Y-103905300D01*
X119397954Y-103845232D01*
X119580450Y-103747685D01*
X119740410Y-103616410D01*
X119871685Y-103456450D01*
X119969232Y-103273954D01*
X120029300Y-103075934D01*
X120049583Y-102870000D01*
X120049583Y-102869999D01*
X120478417Y-102869999D01*
X120478417Y-102870000D01*
X120498699Y-103075930D01*
X120498700Y-103075935D01*
X120558766Y-103273949D01*
X120558768Y-103273954D01*
X120656311Y-103456444D01*
X120656319Y-103456455D01*
X120787588Y-103616408D01*
X120787591Y-103616411D01*
X120832660Y-103653398D01*
X120947550Y-103747685D01*
X120947553Y-103747686D01*
X120947555Y-103747688D01*
X121022912Y-103787967D01*
X121130046Y-103845232D01*
X121328066Y-103905300D01*
X121534000Y-103925583D01*
X121739934Y-103905300D01*
X121937954Y-103845232D01*
X122120450Y-103747685D01*
X122280410Y-103616410D01*
X122411685Y-103456450D01*
X122509232Y-103273954D01*
X122569300Y-103075934D01*
X122589583Y-102870000D01*
X122589583Y-102869999D01*
X123018417Y-102869999D01*
X123018417Y-102870000D01*
X123038699Y-103075930D01*
X123038700Y-103075935D01*
X123098766Y-103273949D01*
X123098768Y-103273954D01*
X123196311Y-103456444D01*
X123196319Y-103456455D01*
X123327588Y-103616408D01*
X123327591Y-103616411D01*
X123372660Y-103653398D01*
X123487550Y-103747685D01*
X123487553Y-103747686D01*
X123487555Y-103747688D01*
X123562912Y-103787967D01*
X123670046Y-103845232D01*
X123868066Y-103905300D01*
X124074000Y-103925583D01*
X124279934Y-103905300D01*
X124477954Y-103845232D01*
X124660450Y-103747685D01*
X124820410Y-103616410D01*
X124951685Y-103456450D01*
X125049232Y-103273954D01*
X125109300Y-103075934D01*
X125129583Y-102870000D01*
X125129583Y-102869999D01*
X125558417Y-102869999D01*
X125558417Y-102870000D01*
X125578699Y-103075930D01*
X125578700Y-103075935D01*
X125638766Y-103273949D01*
X125638768Y-103273954D01*
X125736311Y-103456444D01*
X125736319Y-103456455D01*
X125867588Y-103616408D01*
X125867591Y-103616411D01*
X125912660Y-103653398D01*
X126027550Y-103747685D01*
X126027553Y-103747686D01*
X126027555Y-103747688D01*
X126102912Y-103787967D01*
X126210046Y-103845232D01*
X126408066Y-103905300D01*
X126614000Y-103925583D01*
X126819934Y-103905300D01*
X127017954Y-103845232D01*
X127200450Y-103747685D01*
X127360410Y-103616410D01*
X127491685Y-103456450D01*
X127589232Y-103273954D01*
X127649300Y-103075934D01*
X127669583Y-102870000D01*
X127669583Y-102869996D01*
X127988451Y-102869996D01*
X127988451Y-102870003D01*
X128008617Y-103139102D01*
X128008617Y-103139104D01*
X128068663Y-103402188D01*
X128068666Y-103402195D01*
X128167257Y-103653398D01*
X128302185Y-103887102D01*
X128302187Y-103887105D01*
X128302191Y-103887111D01*
X128470432Y-104098077D01*
X128470435Y-104098080D01*
X128470439Y-104098085D01*
X128668259Y-104281635D01*
X128668264Y-104281638D01*
X128668267Y-104281641D01*
X128809101Y-104377659D01*
X128891226Y-104433651D01*
X129134359Y-104550738D01*
X129274469Y-104593956D01*
X129392217Y-104630277D01*
X129392221Y-104630278D01*
X129392228Y-104630280D01*
X129659071Y-104670500D01*
X129659077Y-104670500D01*
X129928923Y-104670500D01*
X129928929Y-104670500D01*
X130195772Y-104630280D01*
X130453641Y-104550738D01*
X130696775Y-104433651D01*
X130919741Y-104281635D01*
X131117561Y-104098085D01*
X131285815Y-103887102D01*
X131420743Y-103653398D01*
X131519334Y-103402195D01*
X131526683Y-103370000D01*
X131551008Y-103263420D01*
X131579383Y-103139103D01*
X131599549Y-102870000D01*
X131599407Y-102868110D01*
X131594616Y-102804174D01*
X131579383Y-102600897D01*
X131535016Y-102406512D01*
X131519336Y-102337811D01*
X131498040Y-102283550D01*
X131420743Y-102086602D01*
X131285815Y-101852898D01*
X131285810Y-101852892D01*
X131285808Y-101852888D01*
X131117567Y-101641922D01*
X131117564Y-101641919D01*
X131117561Y-101641915D01*
X130919741Y-101458365D01*
X130919735Y-101458361D01*
X130919732Y-101458358D01*
X130696775Y-101306349D01*
X130453641Y-101189262D01*
X130453638Y-101189261D01*
X130453636Y-101189260D01*
X130453632Y-101189259D01*
X130195782Y-101109722D01*
X130195773Y-101109720D01*
X130062350Y-101089610D01*
X129928929Y-101069500D01*
X129659071Y-101069500D01*
X129392226Y-101109720D01*
X129392217Y-101109722D01*
X129134367Y-101189259D01*
X129134363Y-101189260D01*
X128891225Y-101306349D01*
X128668267Y-101458358D01*
X128668260Y-101458363D01*
X128668259Y-101458365D01*
X128470439Y-101641915D01*
X128470437Y-101641917D01*
X128470432Y-101641922D01*
X128302191Y-101852888D01*
X128167258Y-102086599D01*
X128068663Y-102337811D01*
X128008617Y-102600895D01*
X128008617Y-102600897D01*
X127988451Y-102869996D01*
X127669583Y-102869996D01*
X127649300Y-102664066D01*
X127589232Y-102466046D01*
X127491685Y-102283550D01*
X127360410Y-102123590D01*
X127342176Y-102108626D01*
X127200455Y-101992319D01*
X127200453Y-101992318D01*
X127200450Y-101992315D01*
X127200448Y-101992313D01*
X127200444Y-101992311D01*
X127017954Y-101894768D01*
X127017949Y-101894766D01*
X126819935Y-101834700D01*
X126819930Y-101834699D01*
X126614000Y-101814417D01*
X126408069Y-101834699D01*
X126408064Y-101834700D01*
X126210050Y-101894766D01*
X126210045Y-101894768D01*
X126027555Y-101992311D01*
X126027544Y-101992319D01*
X125867591Y-102123588D01*
X125867588Y-102123591D01*
X125736319Y-102283544D01*
X125736311Y-102283555D01*
X125638768Y-102466045D01*
X125638766Y-102466050D01*
X125578700Y-102664064D01*
X125578699Y-102664069D01*
X125558417Y-102869999D01*
X125129583Y-102869999D01*
X125109300Y-102664066D01*
X125049232Y-102466046D01*
X124951685Y-102283550D01*
X124820410Y-102123590D01*
X124802176Y-102108626D01*
X124660455Y-101992319D01*
X124660453Y-101992318D01*
X124660450Y-101992315D01*
X124660448Y-101992313D01*
X124660444Y-101992311D01*
X124477954Y-101894768D01*
X124477949Y-101894766D01*
X124279935Y-101834700D01*
X124279930Y-101834699D01*
X124074000Y-101814417D01*
X123868069Y-101834699D01*
X123868064Y-101834700D01*
X123670050Y-101894766D01*
X123670045Y-101894768D01*
X123487555Y-101992311D01*
X123487544Y-101992319D01*
X123327591Y-102123588D01*
X123327588Y-102123591D01*
X123196319Y-102283544D01*
X123196311Y-102283555D01*
X123098768Y-102466045D01*
X123098766Y-102466050D01*
X123038700Y-102664064D01*
X123038699Y-102664069D01*
X123018417Y-102869999D01*
X122589583Y-102869999D01*
X122569300Y-102664066D01*
X122509232Y-102466046D01*
X122411685Y-102283550D01*
X122280410Y-102123590D01*
X122262176Y-102108626D01*
X122120455Y-101992319D01*
X122120453Y-101992318D01*
X122120450Y-101992315D01*
X122120448Y-101992313D01*
X122120444Y-101992311D01*
X121937954Y-101894768D01*
X121937949Y-101894766D01*
X121739935Y-101834700D01*
X121739930Y-101834699D01*
X121534000Y-101814417D01*
X121328069Y-101834699D01*
X121328064Y-101834700D01*
X121130050Y-101894766D01*
X121130045Y-101894768D01*
X120947555Y-101992311D01*
X120947544Y-101992319D01*
X120787591Y-102123588D01*
X120787588Y-102123591D01*
X120656319Y-102283544D01*
X120656311Y-102283555D01*
X120558768Y-102466045D01*
X120558766Y-102466050D01*
X120498700Y-102664064D01*
X120498699Y-102664069D01*
X120478417Y-102869999D01*
X120049583Y-102869999D01*
X120029300Y-102664066D01*
X119969232Y-102466046D01*
X119871685Y-102283550D01*
X119740410Y-102123590D01*
X119722176Y-102108626D01*
X119580455Y-101992319D01*
X119580453Y-101992318D01*
X119580450Y-101992315D01*
X119580448Y-101992313D01*
X119580444Y-101992311D01*
X119397954Y-101894768D01*
X119397949Y-101894766D01*
X119199935Y-101834700D01*
X119199930Y-101834699D01*
X118994000Y-101814417D01*
X118788069Y-101834699D01*
X118788064Y-101834700D01*
X118590050Y-101894766D01*
X118590045Y-101894768D01*
X118407555Y-101992311D01*
X118407544Y-101992319D01*
X118247591Y-102123588D01*
X118247588Y-102123591D01*
X118116319Y-102283544D01*
X118116311Y-102283555D01*
X118018768Y-102466045D01*
X118018766Y-102466050D01*
X117958700Y-102664064D01*
X117958699Y-102664069D01*
X117938417Y-102869999D01*
X117509583Y-102869999D01*
X117489300Y-102664066D01*
X117429232Y-102466046D01*
X117331685Y-102283550D01*
X117200410Y-102123590D01*
X117182176Y-102108626D01*
X117040455Y-101992319D01*
X117040453Y-101992318D01*
X117040450Y-101992315D01*
X117040448Y-101992313D01*
X117040444Y-101992311D01*
X116857954Y-101894768D01*
X116857949Y-101894766D01*
X116659935Y-101834700D01*
X116659930Y-101834699D01*
X116454000Y-101814417D01*
X116248069Y-101834699D01*
X116248064Y-101834700D01*
X116050050Y-101894766D01*
X116050045Y-101894768D01*
X115867555Y-101992311D01*
X115867544Y-101992319D01*
X115707591Y-102123588D01*
X115707588Y-102123591D01*
X115576319Y-102283544D01*
X115576311Y-102283555D01*
X115478768Y-102466045D01*
X115478766Y-102466050D01*
X115418700Y-102664064D01*
X115418699Y-102664069D01*
X115398417Y-102869999D01*
X114969583Y-102869999D01*
X114949300Y-102664066D01*
X114889232Y-102466046D01*
X114791685Y-102283550D01*
X114660410Y-102123590D01*
X114642176Y-102108626D01*
X114500455Y-101992319D01*
X114500453Y-101992318D01*
X114500450Y-101992315D01*
X114500448Y-101992313D01*
X114500444Y-101992311D01*
X114317954Y-101894768D01*
X114317949Y-101894766D01*
X114119935Y-101834700D01*
X114119930Y-101834699D01*
X113914000Y-101814417D01*
X113708069Y-101834699D01*
X113708064Y-101834700D01*
X113510050Y-101894766D01*
X113510045Y-101894768D01*
X113327555Y-101992311D01*
X113327544Y-101992319D01*
X113167591Y-102123588D01*
X113167588Y-102123591D01*
X113036319Y-102283544D01*
X113036311Y-102283555D01*
X112938768Y-102466045D01*
X112938766Y-102466050D01*
X112878700Y-102664064D01*
X112878699Y-102664069D01*
X112858417Y-102869999D01*
X112729157Y-102869999D01*
X112729157Y-102869997D01*
X112708569Y-102634682D01*
X112708566Y-102634666D01*
X112647432Y-102406512D01*
X112647431Y-102406510D01*
X112547600Y-102192422D01*
X112488926Y-102108625D01*
X111856962Y-102740589D01*
X111839925Y-102677007D01*
X111774099Y-102562993D01*
X111681007Y-102469901D01*
X111566993Y-102404075D01*
X111503407Y-102387037D01*
X112135373Y-101755072D01*
X112051577Y-101696399D01*
X112051579Y-101696399D01*
X111837489Y-101596568D01*
X111837487Y-101596567D01*
X111609333Y-101535433D01*
X111609317Y-101535430D01*
X111374002Y-101514843D01*
X111373998Y-101514843D01*
X111138682Y-101535430D01*
X111138666Y-101535433D01*
X110910512Y-101596567D01*
X110910510Y-101596568D01*
X110696426Y-101696397D01*
X110612626Y-101755073D01*
X111244590Y-102387037D01*
X111181007Y-102404075D01*
X111066993Y-102469901D01*
X110973901Y-102562993D01*
X110908075Y-102677007D01*
X110891037Y-102740590D01*
X110259073Y-102108626D01*
X110200397Y-102192426D01*
X110100568Y-102406510D01*
X110081793Y-102476579D01*
X110052672Y-102514529D01*
X110005246Y-102520772D01*
X109967296Y-102491651D01*
X109960490Y-102474309D01*
X109929336Y-102337811D01*
X109908040Y-102283550D01*
X109830743Y-102086602D01*
X109695815Y-101852898D01*
X109695810Y-101852892D01*
X109695808Y-101852888D01*
X109527567Y-101641922D01*
X109527564Y-101641919D01*
X109527561Y-101641915D01*
X109329741Y-101458365D01*
X109329735Y-101458361D01*
X109329732Y-101458358D01*
X109106775Y-101306349D01*
X108863641Y-101189262D01*
X108863638Y-101189261D01*
X108863636Y-101189260D01*
X108863632Y-101189259D01*
X108605782Y-101109722D01*
X108605773Y-101109720D01*
X108472350Y-101089610D01*
X108338929Y-101069500D01*
X108069071Y-101069500D01*
X107802226Y-101109720D01*
X107802217Y-101109722D01*
X107544367Y-101189259D01*
X107544363Y-101189260D01*
X107301225Y-101306349D01*
X107078267Y-101458358D01*
X107078260Y-101458363D01*
X107078259Y-101458365D01*
X106880439Y-101641915D01*
X106880437Y-101641917D01*
X106880432Y-101641922D01*
X106712191Y-101852888D01*
X106577258Y-102086599D01*
X106478663Y-102337811D01*
X106418617Y-102600895D01*
X106418617Y-102600897D01*
X106398451Y-102869996D01*
X105791557Y-102869996D01*
X105791500Y-102868110D01*
X105791500Y-99040000D01*
X110994353Y-99040000D01*
X111014834Y-99182455D01*
X111074623Y-99313372D01*
X111074623Y-99313374D01*
X111168871Y-99422142D01*
X111168872Y-99422143D01*
X111289947Y-99499953D01*
X111289949Y-99499953D01*
X111289950Y-99499954D01*
X111428036Y-99540499D01*
X111428038Y-99540500D01*
X111428039Y-99540500D01*
X111571962Y-99540500D01*
X111571962Y-99540499D01*
X111710053Y-99499953D01*
X111831128Y-99422143D01*
X111925377Y-99313373D01*
X111985165Y-99182457D01*
X112005647Y-99040000D01*
X111985165Y-98897543D01*
X111925377Y-98766627D01*
X111925376Y-98766625D01*
X111902305Y-98740000D01*
X123154353Y-98740000D01*
X123174834Y-98882455D01*
X123234623Y-99013372D01*
X123234623Y-99013374D01*
X123257695Y-99040000D01*
X123328872Y-99122143D01*
X123449947Y-99199953D01*
X123449949Y-99199953D01*
X123449950Y-99199954D01*
X123588036Y-99240499D01*
X123588038Y-99240500D01*
X123588039Y-99240500D01*
X123731962Y-99240500D01*
X123731962Y-99240499D01*
X123870053Y-99199953D01*
X123991128Y-99122143D01*
X124085377Y-99013373D01*
X124145165Y-98882457D01*
X124165647Y-98740000D01*
X124145165Y-98597543D01*
X124085377Y-98466627D01*
X124085376Y-98466625D01*
X123991128Y-98357857D01*
X123870053Y-98280047D01*
X123870051Y-98280046D01*
X123870049Y-98280045D01*
X123731963Y-98239500D01*
X123731961Y-98239500D01*
X123588039Y-98239500D01*
X123588037Y-98239500D01*
X123449950Y-98280045D01*
X123328871Y-98357857D01*
X123234623Y-98466625D01*
X123234623Y-98466627D01*
X123174834Y-98597544D01*
X123154353Y-98740000D01*
X111902305Y-98740000D01*
X111831128Y-98657857D01*
X111710053Y-98580047D01*
X111710051Y-98580046D01*
X111710049Y-98580045D01*
X111571963Y-98539500D01*
X111571961Y-98539500D01*
X111428039Y-98539500D01*
X111428037Y-98539500D01*
X111289950Y-98580045D01*
X111168871Y-98657857D01*
X111074623Y-98766625D01*
X111074623Y-98766627D01*
X111014834Y-98897544D01*
X110994353Y-99040000D01*
X105791500Y-99040000D01*
X105791500Y-97790000D01*
X111444353Y-97790000D01*
X111464834Y-97932455D01*
X111524623Y-98063372D01*
X111524623Y-98063374D01*
X111618871Y-98172142D01*
X111618872Y-98172143D01*
X111739947Y-98249953D01*
X111739949Y-98249953D01*
X111739950Y-98249954D01*
X111878036Y-98290499D01*
X111878038Y-98290500D01*
X111878039Y-98290500D01*
X112021962Y-98290500D01*
X112021962Y-98290499D01*
X112160053Y-98249953D01*
X112281128Y-98172143D01*
X112375377Y-98063373D01*
X112435165Y-97932457D01*
X112455647Y-97790000D01*
X112435165Y-97647543D01*
X112375377Y-97516627D01*
X112375376Y-97516625D01*
X112281128Y-97407857D01*
X112160053Y-97330047D01*
X112160051Y-97330046D01*
X112160049Y-97330045D01*
X112021963Y-97289500D01*
X112021961Y-97289500D01*
X111878039Y-97289500D01*
X111878037Y-97289500D01*
X111739950Y-97330045D01*
X111618871Y-97407857D01*
X111524623Y-97516625D01*
X111524623Y-97516627D01*
X111464834Y-97647544D01*
X111444353Y-97790000D01*
X105791500Y-97790000D01*
X105791500Y-95390000D01*
X115814353Y-95390000D01*
X115834834Y-95532455D01*
X115834835Y-95532457D01*
X115883927Y-95639953D01*
X115894623Y-95663372D01*
X115894623Y-95663374D01*
X115988871Y-95772143D01*
X116051112Y-95812142D01*
X116106008Y-95847422D01*
X116133290Y-95886714D01*
X116124797Y-95933790D01*
X116106009Y-95952577D01*
X116076061Y-95971824D01*
X115988871Y-96027856D01*
X115894623Y-96136625D01*
X115894623Y-96136627D01*
X115834834Y-96267544D01*
X115814353Y-96410000D01*
X115834834Y-96552455D01*
X115894623Y-96683372D01*
X115894623Y-96683374D01*
X115952355Y-96750000D01*
X115988872Y-96792143D01*
X116109947Y-96869953D01*
X116186589Y-96892457D01*
X116248036Y-96910499D01*
X116248038Y-96910500D01*
X116248039Y-96910500D01*
X116391962Y-96910500D01*
X116391962Y-96910499D01*
X116530053Y-96869953D01*
X116651128Y-96792143D01*
X116687645Y-96750000D01*
X125704353Y-96750000D01*
X125724834Y-96892455D01*
X125784623Y-97023372D01*
X125784623Y-97023374D01*
X125878871Y-97132142D01*
X125878872Y-97132143D01*
X125999947Y-97209953D01*
X125999949Y-97209953D01*
X125999950Y-97209954D01*
X126138036Y-97250499D01*
X126138038Y-97250500D01*
X126138039Y-97250500D01*
X126281962Y-97250500D01*
X126281962Y-97250499D01*
X126420053Y-97209953D01*
X126541128Y-97132143D01*
X126635377Y-97023373D01*
X126695165Y-96892457D01*
X126715647Y-96750000D01*
X126695165Y-96607543D01*
X126635377Y-96476627D01*
X126635376Y-96476625D01*
X126541128Y-96367857D01*
X126420053Y-96290047D01*
X126420051Y-96290046D01*
X126420049Y-96290045D01*
X126281963Y-96249500D01*
X126281961Y-96249500D01*
X126138039Y-96249500D01*
X126138037Y-96249500D01*
X125999950Y-96290045D01*
X125878871Y-96367857D01*
X125784623Y-96476625D01*
X125784623Y-96476627D01*
X125724834Y-96607544D01*
X125704353Y-96750000D01*
X116687645Y-96750000D01*
X116745377Y-96683373D01*
X116805165Y-96552457D01*
X116825647Y-96410000D01*
X116805165Y-96267543D01*
X116745377Y-96136627D01*
X116745376Y-96136625D01*
X116651128Y-96027857D01*
X116651126Y-96027856D01*
X116533989Y-95952576D01*
X116506709Y-95913286D01*
X116515202Y-95866210D01*
X116533987Y-95847424D01*
X116651128Y-95772143D01*
X116745377Y-95663373D01*
X116805165Y-95532457D01*
X116825647Y-95390000D01*
X116805165Y-95247543D01*
X116774319Y-95180000D01*
X121594353Y-95180000D01*
X121614834Y-95322455D01*
X121674623Y-95453372D01*
X121674623Y-95453374D01*
X121743147Y-95532455D01*
X121768872Y-95562143D01*
X121889947Y-95639953D01*
X121889949Y-95639953D01*
X121889950Y-95639954D01*
X122028036Y-95680499D01*
X122028038Y-95680500D01*
X122028039Y-95680500D01*
X122171962Y-95680500D01*
X122171962Y-95680499D01*
X122310053Y-95639953D01*
X122431128Y-95562143D01*
X122525377Y-95453373D01*
X122536051Y-95430000D01*
X122804353Y-95430000D01*
X122824834Y-95572455D01*
X122824835Y-95572457D01*
X122866355Y-95663373D01*
X122884623Y-95703372D01*
X122884623Y-95703374D01*
X122944211Y-95772142D01*
X122978872Y-95812143D01*
X123099947Y-95889953D01*
X123099949Y-95889953D01*
X123099950Y-95889954D01*
X123238036Y-95930499D01*
X123238038Y-95930500D01*
X123238039Y-95930500D01*
X123381962Y-95930500D01*
X123381962Y-95930499D01*
X123520053Y-95889953D01*
X123641128Y-95812143D01*
X123735377Y-95703373D01*
X123795165Y-95572457D01*
X123815647Y-95430000D01*
X123795165Y-95287543D01*
X123735377Y-95156627D01*
X123735376Y-95156625D01*
X123641128Y-95047857D01*
X123625079Y-95037543D01*
X123520053Y-94970047D01*
X123520051Y-94970046D01*
X123520049Y-94970045D01*
X123381963Y-94929500D01*
X123381961Y-94929500D01*
X123238039Y-94929500D01*
X123238037Y-94929500D01*
X123099950Y-94970045D01*
X122978871Y-95047857D01*
X122884623Y-95156625D01*
X122884623Y-95156627D01*
X122824834Y-95287544D01*
X122804353Y-95430000D01*
X122536051Y-95430000D01*
X122585165Y-95322457D01*
X122605647Y-95180000D01*
X122585165Y-95037543D01*
X122525377Y-94906627D01*
X122525376Y-94906625D01*
X122431128Y-94797857D01*
X122375559Y-94762145D01*
X122310053Y-94720047D01*
X122310051Y-94720046D01*
X122310049Y-94720045D01*
X122171963Y-94679500D01*
X122171961Y-94679500D01*
X122028039Y-94679500D01*
X122028037Y-94679500D01*
X121889950Y-94720045D01*
X121768871Y-94797857D01*
X121674623Y-94906625D01*
X121674623Y-94906627D01*
X121614834Y-95037544D01*
X121594353Y-95180000D01*
X116774319Y-95180000D01*
X116745377Y-95116627D01*
X116745376Y-95116625D01*
X116651126Y-95007854D01*
X116564639Y-94952273D01*
X116537357Y-94912980D01*
X116545851Y-94865905D01*
X116576509Y-94842959D01*
X116575985Y-94841811D01*
X116580047Y-94839955D01*
X116580047Y-94839954D01*
X116580053Y-94839953D01*
X116701128Y-94762143D01*
X116795377Y-94653373D01*
X116855165Y-94522457D01*
X116875647Y-94380000D01*
X116855165Y-94237543D01*
X116795377Y-94106627D01*
X116795376Y-94106625D01*
X116701126Y-93997854D01*
X116633453Y-93954364D01*
X116606171Y-93915071D01*
X116614665Y-93867996D01*
X116633451Y-93849209D01*
X116691128Y-93812143D01*
X116744975Y-93750000D01*
X123294353Y-93750000D01*
X123314834Y-93892455D01*
X123314835Y-93892457D01*
X123346042Y-93960791D01*
X123374623Y-94023372D01*
X123374623Y-94023374D01*
X123446762Y-94106627D01*
X123468872Y-94132143D01*
X123589947Y-94209953D01*
X123683914Y-94237544D01*
X123728036Y-94250499D01*
X123728038Y-94250500D01*
X123728039Y-94250500D01*
X123871962Y-94250500D01*
X123871962Y-94250499D01*
X124010053Y-94209953D01*
X124131128Y-94132143D01*
X124225377Y-94023373D01*
X124285165Y-93892457D01*
X124305647Y-93750000D01*
X124285165Y-93607543D01*
X124225377Y-93476627D01*
X124225376Y-93476625D01*
X124131128Y-93367857D01*
X124010053Y-93290047D01*
X124010051Y-93290046D01*
X124010049Y-93290045D01*
X123871963Y-93249500D01*
X123871961Y-93249500D01*
X123728039Y-93249500D01*
X123728037Y-93249500D01*
X123589950Y-93290045D01*
X123468871Y-93367857D01*
X123374623Y-93476625D01*
X123374623Y-93476627D01*
X123314834Y-93607544D01*
X123294353Y-93750000D01*
X116744975Y-93750000D01*
X116785377Y-93703373D01*
X116845165Y-93572457D01*
X116865647Y-93430000D01*
X116845165Y-93287543D01*
X116785377Y-93156627D01*
X116785376Y-93156625D01*
X116691128Y-93047857D01*
X116570053Y-92970047D01*
X116570051Y-92970046D01*
X116570049Y-92970045D01*
X116431963Y-92929500D01*
X116431961Y-92929500D01*
X116288039Y-92929500D01*
X116288037Y-92929500D01*
X116149950Y-92970045D01*
X116028871Y-93047857D01*
X115934623Y-93156625D01*
X115934623Y-93156627D01*
X115874834Y-93287544D01*
X115854353Y-93430000D01*
X115874834Y-93572455D01*
X115934623Y-93703372D01*
X115934623Y-93703374D01*
X116028871Y-93812143D01*
X116073149Y-93840598D01*
X116096546Y-93855634D01*
X116123828Y-93894927D01*
X116115335Y-93942003D01*
X116096546Y-93960791D01*
X116038873Y-93997854D01*
X115944623Y-94106625D01*
X115944623Y-94106627D01*
X115884834Y-94237544D01*
X115864353Y-94380000D01*
X115884834Y-94522455D01*
X115944623Y-94653372D01*
X115944623Y-94653374D01*
X116038873Y-94762145D01*
X116125360Y-94817726D01*
X116152642Y-94857018D01*
X116144148Y-94904094D01*
X116113492Y-94927045D01*
X116114015Y-94928189D01*
X116109952Y-94930044D01*
X115988871Y-95007857D01*
X115894623Y-95116625D01*
X115894623Y-95116627D01*
X115834834Y-95247544D01*
X115814353Y-95390000D01*
X105791500Y-95390000D01*
X105791500Y-93750000D01*
X111344353Y-93750000D01*
X111364834Y-93892455D01*
X111364835Y-93892457D01*
X111396042Y-93960791D01*
X111424623Y-94023372D01*
X111424623Y-94023374D01*
X111496762Y-94106627D01*
X111518872Y-94132143D01*
X111639947Y-94209953D01*
X111733914Y-94237544D01*
X111778036Y-94250499D01*
X111778038Y-94250500D01*
X111778039Y-94250500D01*
X111921962Y-94250500D01*
X111921962Y-94250499D01*
X112060053Y-94209953D01*
X112181128Y-94132143D01*
X112275377Y-94023373D01*
X112335165Y-93892457D01*
X112355647Y-93750000D01*
X112335165Y-93607543D01*
X112275377Y-93476627D01*
X112275376Y-93476625D01*
X112181128Y-93367857D01*
X112060053Y-93290047D01*
X112060051Y-93290046D01*
X112060049Y-93290045D01*
X111921963Y-93249500D01*
X111921961Y-93249500D01*
X111778039Y-93249500D01*
X111778037Y-93249500D01*
X111639950Y-93290045D01*
X111518871Y-93367857D01*
X111424623Y-93476625D01*
X111424623Y-93476627D01*
X111364834Y-93607544D01*
X111344353Y-93750000D01*
X105791500Y-93750000D01*
X105791500Y-87629996D01*
X106398451Y-87629996D01*
X106398451Y-87630003D01*
X106418617Y-87899102D01*
X106418617Y-87899104D01*
X106478663Y-88162188D01*
X106478666Y-88162195D01*
X106577257Y-88413398D01*
X106712185Y-88647102D01*
X106712187Y-88647105D01*
X106712191Y-88647111D01*
X106880432Y-88858077D01*
X106880435Y-88858080D01*
X106880439Y-88858085D01*
X107078259Y-89041635D01*
X107078264Y-89041638D01*
X107078267Y-89041641D01*
X107219101Y-89137659D01*
X107301226Y-89193651D01*
X107544359Y-89310738D01*
X107684469Y-89353956D01*
X107802217Y-89390277D01*
X107802221Y-89390278D01*
X107802228Y-89390280D01*
X108069071Y-89430500D01*
X108069077Y-89430500D01*
X108338923Y-89430500D01*
X108338929Y-89430500D01*
X108605772Y-89390280D01*
X108863641Y-89310738D01*
X109106775Y-89193651D01*
X109329741Y-89041635D01*
X109527561Y-88858085D01*
X109695815Y-88647102D01*
X109830743Y-88413398D01*
X109929334Y-88162195D01*
X109989383Y-87899103D01*
X110009549Y-87630000D01*
X110009549Y-87629996D01*
X127988451Y-87629996D01*
X127988451Y-87630003D01*
X128008617Y-87899102D01*
X128008617Y-87899104D01*
X128068663Y-88162188D01*
X128068666Y-88162195D01*
X128167257Y-88413398D01*
X128302185Y-88647102D01*
X128302187Y-88647105D01*
X128302191Y-88647111D01*
X128470432Y-88858077D01*
X128470435Y-88858080D01*
X128470439Y-88858085D01*
X128668259Y-89041635D01*
X128668264Y-89041638D01*
X128668267Y-89041641D01*
X128809101Y-89137659D01*
X128891226Y-89193651D01*
X129134359Y-89310738D01*
X129274469Y-89353956D01*
X129392217Y-89390277D01*
X129392221Y-89390278D01*
X129392228Y-89390280D01*
X129659071Y-89430500D01*
X129659077Y-89430500D01*
X129928923Y-89430500D01*
X129928929Y-89430500D01*
X130195772Y-89390280D01*
X130453641Y-89310738D01*
X130696775Y-89193651D01*
X130919741Y-89041635D01*
X131117561Y-88858085D01*
X131285815Y-88647102D01*
X131420743Y-88413398D01*
X131519334Y-88162195D01*
X131579383Y-87899103D01*
X131599549Y-87630000D01*
X131599231Y-87625761D01*
X131593323Y-87546919D01*
X131579383Y-87360897D01*
X131551305Y-87237881D01*
X131519336Y-87097811D01*
X131496271Y-87039043D01*
X131420743Y-86846602D01*
X131285815Y-86612898D01*
X131285810Y-86612892D01*
X131285808Y-86612888D01*
X131117567Y-86401922D01*
X131117564Y-86401919D01*
X131117561Y-86401915D01*
X130919741Y-86218365D01*
X130919735Y-86218361D01*
X130919732Y-86218358D01*
X130696775Y-86066349D01*
X130607154Y-86023190D01*
X130453641Y-85949262D01*
X130453638Y-85949261D01*
X130453636Y-85949260D01*
X130453632Y-85949259D01*
X130195782Y-85869722D01*
X130195773Y-85869720D01*
X129996734Y-85839720D01*
X129928929Y-85829500D01*
X129659071Y-85829500D01*
X129392226Y-85869720D01*
X129392217Y-85869722D01*
X129134367Y-85949259D01*
X129134363Y-85949260D01*
X128891225Y-86066349D01*
X128668267Y-86218358D01*
X128668260Y-86218363D01*
X128668259Y-86218365D01*
X128470439Y-86401915D01*
X128470437Y-86401917D01*
X128470432Y-86401922D01*
X128302191Y-86612888D01*
X128167258Y-86846599D01*
X128068663Y-87097811D01*
X128008617Y-87360895D01*
X128008617Y-87360897D01*
X127988451Y-87629996D01*
X110009549Y-87629996D01*
X110009231Y-87625761D01*
X110003323Y-87546919D01*
X109989383Y-87360897D01*
X109961305Y-87237881D01*
X109929336Y-87097811D01*
X109906271Y-87039043D01*
X109830743Y-86846602D01*
X109695815Y-86612898D01*
X109695810Y-86612892D01*
X109695808Y-86612888D01*
X109527567Y-86401922D01*
X109527564Y-86401919D01*
X109527561Y-86401915D01*
X109329741Y-86218365D01*
X109329735Y-86218361D01*
X109329732Y-86218358D01*
X109106775Y-86066349D01*
X109017154Y-86023190D01*
X108863641Y-85949262D01*
X108863638Y-85949261D01*
X108863636Y-85949260D01*
X108863632Y-85949259D01*
X108605782Y-85869722D01*
X108605773Y-85869720D01*
X108406734Y-85839720D01*
X108338929Y-85829500D01*
X108069071Y-85829500D01*
X107802226Y-85869720D01*
X107802217Y-85869722D01*
X107544367Y-85949259D01*
X107544363Y-85949260D01*
X107301225Y-86066349D01*
X107078267Y-86218358D01*
X107078260Y-86218363D01*
X107078259Y-86218365D01*
X106880439Y-86401915D01*
X106880437Y-86401917D01*
X106880432Y-86401922D01*
X106712191Y-86612888D01*
X106577258Y-86846599D01*
X106478663Y-87097811D01*
X106418617Y-87360895D01*
X106418617Y-87360897D01*
X106398451Y-87629996D01*
X105791500Y-87629996D01*
X105791500Y-87415076D01*
X105792172Y-87405939D01*
X105817009Y-87237881D01*
X105831119Y-87142404D01*
X105832569Y-87135397D01*
X105902617Y-86873726D01*
X105904859Y-86866935D01*
X106004431Y-86615005D01*
X106007431Y-86608530D01*
X106135211Y-86369671D01*
X106138950Y-86363556D01*
X106293252Y-86140920D01*
X106297647Y-86135297D01*
X106476456Y-85931792D01*
X106481475Y-85926703D01*
X106682406Y-85745042D01*
X106687976Y-85740558D01*
X106908414Y-85583106D01*
X106914464Y-85579290D01*
X107151477Y-85448140D01*
X107157923Y-85445042D01*
X107408400Y-85341915D01*
X107415177Y-85339570D01*
X107675808Y-85265824D01*
X107682801Y-85264272D01*
X107950185Y-85220873D01*
X107957301Y-85220133D01*
X108229726Y-85207573D01*
X108233271Y-85207512D01*
X108260574Y-85207822D01*
X108260575Y-85207821D01*
X108265236Y-85207874D01*
X108268743Y-85207500D01*
X129735899Y-85207500D01*
X129763111Y-85207500D01*
X129766884Y-85207613D01*
G37*
%TD.AperFunction*%
%TD*%
M02*
