%TF.GenerationSoftware,KiCad,Pcbnew,8.0.3-8.0.3-0~ubuntu23.10.1*%
%TF.CreationDate,2024-08-01T21:15:56-04:00*%
%TF.ProjectId,OPT4001,4f505434-3030-4312-9e6b-696361645f70,rev?*%
%TF.SameCoordinates,Original*%
%TF.FileFunction,Legend,Bot*%
%TF.FilePolarity,Positive*%
%FSLAX46Y46*%
G04 Gerber Fmt 4.6, Leading zero omitted, Abs format (unit mm)*
G04 Created by KiCad (PCBNEW 8.0.3-8.0.3-0~ubuntu23.10.1) date 2024-08-01 21:15:56*
%MOMM*%
%LPD*%
G01*
G04 APERTURE LIST*
G04 Aperture macros list*
%AMFreePoly0*
4,1,19,0.500000,-0.750000,0.000000,-0.750000,0.000000,-0.744911,-0.071157,-0.744911,-0.207708,-0.704816,-0.327430,-0.627875,-0.420627,-0.520320,-0.479746,-0.390866,-0.500000,-0.250000,-0.500000,0.250000,-0.479746,0.390866,-0.420627,0.520320,-0.327430,0.627875,-0.207708,0.704816,-0.071157,0.744911,0.000000,0.744911,0.000000,0.750000,0.500000,0.750000,0.500000,-0.750000,0.500000,-0.750000,
$1*%
%AMFreePoly1*
4,1,19,0.000000,0.744911,0.071157,0.744911,0.207708,0.704816,0.327430,0.627875,0.420627,0.520320,0.479746,0.390866,0.500000,0.250000,0.500000,-0.250000,0.479746,-0.390866,0.420627,-0.520320,0.327430,-0.627875,0.207708,-0.704816,0.071157,-0.744911,0.000000,-0.744911,0.000000,-0.750000,-0.500000,-0.750000,-0.500000,0.750000,0.000000,0.750000,0.000000,0.744911,0.000000,0.744911,
$1*%
G04 Aperture macros list end*
%ADD10C,0.200000*%
%ADD11C,0.120000*%
%ADD12C,3.200000*%
%ADD13FreePoly0,270.000000*%
%ADD14FreePoly1,270.000000*%
%ADD15O,1.700000X1.700000*%
%ADD16C,1.700000*%
G04 APERTURE END LIST*
D10*
X115564285Y-93166504D02*
X115088095Y-93166504D01*
X115659523Y-93452219D02*
X115326190Y-92452219D01*
X115326190Y-92452219D02*
X114992857Y-93452219D01*
X114135714Y-93452219D02*
X114707142Y-93452219D01*
X114421428Y-93452219D02*
X114421428Y-92452219D01*
X114421428Y-92452219D02*
X114516666Y-92595076D01*
X114516666Y-92595076D02*
X114611904Y-92690314D01*
X114611904Y-92690314D02*
X114707142Y-92737933D01*
D11*
%TO.C,JP1*%
X113850000Y-95950000D02*
X113850000Y-94550000D01*
X114550000Y-93850000D02*
X115150000Y-93850000D01*
X115150000Y-96650000D02*
X114550000Y-96650000D01*
X115850000Y-94550000D02*
X115850000Y-95950000D01*
X113850000Y-94550000D02*
G75*
G02*
X114550000Y-93850000I699999J1D01*
G01*
X114550000Y-96650000D02*
G75*
G02*
X113850000Y-95950000I0J700000D01*
G01*
X115150000Y-93850000D02*
G75*
G02*
X115850000Y-94550000I1J-699999D01*
G01*
X115850000Y-95950000D02*
G75*
G02*
X115150000Y-96650000I-700000J0D01*
G01*
%TO.C,J3*%
X127944000Y-104200000D02*
X127944000Y-101540000D01*
X127944000Y-104200000D02*
X112644000Y-104200000D01*
X127944000Y-101540000D02*
X112644000Y-101540000D01*
X112644000Y-104200000D02*
X112644000Y-101540000D01*
X110044000Y-102870000D02*
X110044000Y-101540000D01*
X110044000Y-101540000D02*
X111374000Y-101540000D01*
%TD*%
%LPC*%
D12*
%TO.C,H1*%
X108204000Y-87630000D03*
%TD*%
%TO.C,H4*%
X129794000Y-87630000D03*
%TD*%
%TO.C,H3*%
X108204000Y-102870000D03*
%TD*%
%TO.C,H2*%
X129794000Y-102870000D03*
%TD*%
D13*
%TO.C,JP1*%
X114850000Y-94600000D03*
D14*
X114850000Y-95900000D03*
%TD*%
D15*
%TO.C,J3*%
X126614000Y-102870000D03*
X124074000Y-102870000D03*
X121534000Y-102870000D03*
X118994000Y-102870000D03*
X116454000Y-102870000D03*
X113914000Y-102870000D03*
D16*
X111374000Y-102870000D03*
%TD*%
%LPD*%
M02*
