%TF.GenerationSoftware,KiCad,Pcbnew,8.0.3-8.0.3-0~ubuntu23.10.1*%
%TF.CreationDate,2024-08-01T21:15:56-04:00*%
%TF.ProjectId,OPT4001,4f505434-3030-4312-9e6b-696361645f70,rev?*%
%TF.SameCoordinates,Original*%
%TF.FileFunction,Copper,L4,Bot*%
%TF.FilePolarity,Positive*%
%FSLAX46Y46*%
G04 Gerber Fmt 4.6, Leading zero omitted, Abs format (unit mm)*
G04 Created by KiCad (PCBNEW 8.0.3-8.0.3-0~ubuntu23.10.1) date 2024-08-01 21:15:56*
%MOMM*%
%LPD*%
G01*
G04 APERTURE LIST*
G04 Aperture macros list*
%AMFreePoly0*
4,1,19,0.500000,-0.750000,0.000000,-0.750000,0.000000,-0.744911,-0.071157,-0.744911,-0.207708,-0.704816,-0.327430,-0.627875,-0.420627,-0.520320,-0.479746,-0.390866,-0.500000,-0.250000,-0.500000,0.250000,-0.479746,0.390866,-0.420627,0.520320,-0.327430,0.627875,-0.207708,0.704816,-0.071157,0.744911,0.000000,0.744911,0.000000,0.750000,0.500000,0.750000,0.500000,-0.750000,0.500000,-0.750000,
$1*%
%AMFreePoly1*
4,1,19,0.000000,0.744911,0.071157,0.744911,0.207708,0.704816,0.327430,0.627875,0.420627,0.520320,0.479746,0.390866,0.500000,0.250000,0.500000,-0.250000,0.479746,-0.390866,0.420627,-0.520320,0.327430,-0.627875,0.207708,-0.704816,0.071157,-0.744911,0.000000,-0.744911,0.000000,-0.750000,-0.500000,-0.750000,-0.500000,0.750000,0.000000,0.750000,0.000000,0.744911,0.000000,0.744911,
$1*%
G04 Aperture macros list end*
%TA.AperFunction,ComponentPad*%
%ADD10C,3.200000*%
%TD*%
%TA.AperFunction,SMDPad,CuDef*%
%ADD11FreePoly0,270.000000*%
%TD*%
%TA.AperFunction,SMDPad,CuDef*%
%ADD12FreePoly1,270.000000*%
%TD*%
%TA.AperFunction,ComponentPad*%
%ADD13O,1.700000X1.700000*%
%TD*%
%TA.AperFunction,ComponentPad*%
%ADD14C,1.700000*%
%TD*%
%TA.AperFunction,ViaPad*%
%ADD15C,0.600000*%
%TD*%
%TA.AperFunction,Conductor*%
%ADD16C,0.200000*%
%TD*%
G04 APERTURE END LIST*
D10*
%TO.P,H1,1,1*%
%TO.N,unconnected-(H1-Pad1)*%
X108204000Y-87630000D03*
%TD*%
%TO.P,H4,1,1*%
%TO.N,unconnected-(H4-Pad1)*%
X129794000Y-87630000D03*
%TD*%
%TO.P,H3,1,1*%
%TO.N,unconnected-(H3-Pad1)*%
X108204000Y-102870000D03*
%TD*%
%TO.P,H2,1,1*%
%TO.N,unconnected-(H2-Pad1)*%
X129794000Y-102870000D03*
%TD*%
D11*
%TO.P,JP1,1,A*%
%TO.N,+3.3V*%
X114850000Y-94600000D03*
D12*
%TO.P,JP1,2,B*%
%TO.N,Net-(JP1-B)*%
X114850000Y-95900000D03*
%TD*%
D13*
%TO.P,J3,7,Pin_7*%
%TO.N,/INT*%
X126614000Y-102870000D03*
%TO.P,J3,6,Pin_6*%
%TO.N,GND*%
X124074000Y-102870000D03*
%TO.P,J3,5,Pin_5*%
%TO.N,/SDA*%
X121534000Y-102870000D03*
%TO.P,J3,4,Pin_4*%
%TO.N,/SCL*%
X118994000Y-102870000D03*
%TO.P,J3,3,Pin_3*%
%TO.N,GND*%
X116454000Y-102870000D03*
%TO.P,J3,2,Pin_2*%
%TO.N,+3.3V*%
X113914000Y-102870000D03*
D14*
%TO.P,J3,1,Pin_1*%
%TO.N,VDD*%
X111374000Y-102870000D03*
%TD*%
D15*
%TO.N,GND*%
X111950000Y-97790000D03*
X116320000Y-96410000D03*
X116360000Y-93430000D03*
X126210000Y-96750000D03*
X111850000Y-93750000D03*
%TO.N,/SCL*%
X123310000Y-95430000D03*
X123800000Y-93750000D03*
%TO.N,VDD*%
X124580000Y-99790000D03*
X126210000Y-95750000D03*
X120420000Y-97310000D03*
X120450000Y-93190000D03*
X111850000Y-94750000D03*
X117350000Y-98740000D03*
%TO.N,/INT*%
X122100000Y-95180000D03*
X123660000Y-98740000D03*
%TO.N,+3.3V*%
X111500000Y-99040000D03*
X116370000Y-94380000D03*
%TO.N,Net-(JP1-B)*%
X116320000Y-95390000D03*
%TD*%
D16*
%TO.N,/SCL*%
X123310000Y-95430000D02*
X123310000Y-94240000D01*
X123310000Y-94240000D02*
X123800000Y-93750000D01*
%TO.N,/INT*%
X122100000Y-97180000D02*
X123660000Y-98740000D01*
X122100000Y-95180000D02*
X122100000Y-97180000D01*
%TO.N,+3.3V*%
X114850000Y-94600000D02*
X113570000Y-94600000D01*
X111050000Y-98590000D02*
X111500000Y-99040000D01*
X115790000Y-94600000D02*
X114850000Y-94600000D01*
X113570000Y-94600000D02*
X111050000Y-97120000D01*
X116370000Y-94380000D02*
X116010000Y-94380000D01*
X116010000Y-94380000D02*
X115790000Y-94600000D01*
X111050000Y-97120000D02*
X111050000Y-98590000D01*
%TO.N,Net-(JP1-B)*%
X115970000Y-95390000D02*
X115870000Y-95490000D01*
X115870000Y-95490000D02*
X115870000Y-95750000D01*
X115870000Y-95750000D02*
X115720000Y-95900000D01*
X116320000Y-95390000D02*
X115970000Y-95390000D01*
X115720000Y-95900000D02*
X114850000Y-95900000D01*
%TD*%
%TA.AperFunction,Conductor*%
%TO.N,GND*%
G36*
X129766884Y-85207613D02*
G01*
X130052036Y-85224862D01*
X130059503Y-85225769D01*
X130338629Y-85276921D01*
X130345956Y-85278727D01*
X130544347Y-85340548D01*
X130616871Y-85363147D01*
X130623927Y-85365822D01*
X130882707Y-85482289D01*
X130889377Y-85485791D01*
X131044035Y-85579285D01*
X131132219Y-85632594D01*
X131138430Y-85636881D01*
X131361809Y-85811888D01*
X131367458Y-85816893D01*
X131568106Y-86017541D01*
X131573111Y-86023190D01*
X131748118Y-86246569D01*
X131752405Y-86252780D01*
X131899205Y-86495616D01*
X131902713Y-86502299D01*
X132019176Y-86761071D01*
X132021852Y-86768128D01*
X132106272Y-87039043D01*
X132108078Y-87046371D01*
X132159228Y-87325483D01*
X132160138Y-87332976D01*
X132175991Y-87595071D01*
X132175899Y-87597521D01*
X132177385Y-87621971D01*
X132177500Y-87625761D01*
X132177500Y-87649102D01*
X132177629Y-87649669D01*
X132190183Y-87675440D01*
X132190305Y-87675692D01*
X132200310Y-87696466D01*
X132206500Y-87723585D01*
X132206500Y-102868110D01*
X132206386Y-102871884D01*
X132189138Y-103157023D01*
X132188228Y-103164515D01*
X132137078Y-103443628D01*
X132135272Y-103450956D01*
X132050852Y-103721871D01*
X132048176Y-103728928D01*
X131931713Y-103987700D01*
X131928205Y-103994383D01*
X131781405Y-104237219D01*
X131777118Y-104243430D01*
X131602111Y-104466809D01*
X131597106Y-104472458D01*
X131396458Y-104673106D01*
X131390809Y-104678111D01*
X131167430Y-104853118D01*
X131161219Y-104857405D01*
X130918383Y-105004205D01*
X130911700Y-105007713D01*
X130652928Y-105124176D01*
X130645871Y-105126852D01*
X130374956Y-105211272D01*
X130367628Y-105213078D01*
X130088515Y-105264228D01*
X130081023Y-105265138D01*
X129795885Y-105282386D01*
X129792111Y-105282500D01*
X108205889Y-105282500D01*
X108202115Y-105282386D01*
X107916976Y-105265138D01*
X107909484Y-105264228D01*
X107630371Y-105213078D01*
X107623043Y-105211272D01*
X107352128Y-105126852D01*
X107345071Y-105124176D01*
X107086299Y-105007713D01*
X107079616Y-105004205D01*
X106836780Y-104857405D01*
X106830569Y-104853118D01*
X106607190Y-104678111D01*
X106601541Y-104673106D01*
X106400893Y-104472458D01*
X106395888Y-104466809D01*
X106220881Y-104243430D01*
X106216594Y-104237219D01*
X106159895Y-104143428D01*
X106069791Y-103994377D01*
X106066289Y-103987707D01*
X105949822Y-103728927D01*
X105947147Y-103721871D01*
X105862727Y-103450956D01*
X105860921Y-103443628D01*
X105847428Y-103370000D01*
X105809769Y-103164503D01*
X105808862Y-103157034D01*
X105791614Y-102871883D01*
X105791557Y-102870000D01*
X106398451Y-102870000D01*
X106417185Y-103120000D01*
X106418617Y-103139102D01*
X106418617Y-103139104D01*
X106478663Y-103402188D01*
X106478666Y-103402195D01*
X106577257Y-103653398D01*
X106712185Y-103887102D01*
X106712187Y-103887105D01*
X106712191Y-103887111D01*
X106880432Y-104098077D01*
X106880435Y-104098080D01*
X106880439Y-104098085D01*
X107078259Y-104281635D01*
X107078264Y-104281638D01*
X107078267Y-104281641D01*
X107219101Y-104377659D01*
X107301226Y-104433651D01*
X107544359Y-104550738D01*
X107684469Y-104593956D01*
X107802217Y-104630277D01*
X107802221Y-104630278D01*
X107802228Y-104630280D01*
X108069071Y-104670500D01*
X108069077Y-104670500D01*
X108338923Y-104670500D01*
X108338929Y-104670500D01*
X108605772Y-104630280D01*
X108863641Y-104550738D01*
X109106775Y-104433651D01*
X109329741Y-104281635D01*
X109527561Y-104098085D01*
X109695815Y-103887102D01*
X109830743Y-103653398D01*
X109929334Y-103402195D01*
X109936683Y-103370000D01*
X109959484Y-103270099D01*
X109989383Y-103139103D01*
X110009549Y-102870000D01*
X110009549Y-102869999D01*
X110318417Y-102869999D01*
X110318417Y-102870000D01*
X110338699Y-103075930D01*
X110338700Y-103075935D01*
X110398766Y-103273949D01*
X110398768Y-103273954D01*
X110496311Y-103456444D01*
X110496313Y-103456448D01*
X110496315Y-103456450D01*
X110627590Y-103616410D01*
X110787550Y-103747685D01*
X110787553Y-103747686D01*
X110787555Y-103747688D01*
X110862912Y-103787967D01*
X110970046Y-103845232D01*
X111168066Y-103905300D01*
X111374000Y-103925583D01*
X111579934Y-103905300D01*
X111777954Y-103845232D01*
X111960450Y-103747685D01*
X112120410Y-103616410D01*
X112251685Y-103456450D01*
X112349232Y-103273954D01*
X112409300Y-103075934D01*
X112429583Y-102870000D01*
X112429583Y-102869999D01*
X112858417Y-102869999D01*
X112858417Y-102870000D01*
X112878699Y-103075930D01*
X112878700Y-103075935D01*
X112938766Y-103273949D01*
X112938768Y-103273954D01*
X113036311Y-103456444D01*
X113036313Y-103456448D01*
X113036315Y-103456450D01*
X113167590Y-103616410D01*
X113327550Y-103747685D01*
X113327553Y-103747686D01*
X113327555Y-103747688D01*
X113402912Y-103787967D01*
X113510046Y-103845232D01*
X113708066Y-103905300D01*
X113914000Y-103925583D01*
X114119934Y-103905300D01*
X114317954Y-103845232D01*
X114500450Y-103747685D01*
X114660410Y-103616410D01*
X114791685Y-103456450D01*
X114889232Y-103273954D01*
X114949300Y-103075934D01*
X114969583Y-102870000D01*
X114949300Y-102664066D01*
X114935932Y-102619998D01*
X115123363Y-102619998D01*
X115123364Y-102620000D01*
X116020988Y-102620000D01*
X115988075Y-102677007D01*
X115954000Y-102804174D01*
X115954000Y-102935826D01*
X115988075Y-103062993D01*
X116020988Y-103120000D01*
X115123364Y-103120000D01*
X115123363Y-103120001D01*
X115180567Y-103333487D01*
X115180568Y-103333489D01*
X115280398Y-103547575D01*
X115415892Y-103741081D01*
X115582918Y-103908107D01*
X115776426Y-104043603D01*
X115990503Y-104143428D01*
X115990519Y-104143434D01*
X116203998Y-104200635D01*
X116204000Y-104200634D01*
X116204000Y-103303012D01*
X116261007Y-103335925D01*
X116388174Y-103370000D01*
X116519826Y-103370000D01*
X116646993Y-103335925D01*
X116704000Y-103303012D01*
X116704000Y-104200634D01*
X116704001Y-104200635D01*
X116917480Y-104143434D01*
X116917496Y-104143428D01*
X117131573Y-104043603D01*
X117325081Y-103908107D01*
X117492107Y-103741081D01*
X117627601Y-103547575D01*
X117727431Y-103333489D01*
X117727432Y-103333487D01*
X117784636Y-103120001D01*
X117784636Y-103120000D01*
X116887012Y-103120000D01*
X116919925Y-103062993D01*
X116954000Y-102935826D01*
X116954000Y-102869999D01*
X117938417Y-102869999D01*
X117938417Y-102870000D01*
X117958699Y-103075930D01*
X117958700Y-103075935D01*
X118018766Y-103273949D01*
X118018768Y-103273954D01*
X118116311Y-103456444D01*
X118116313Y-103456448D01*
X118116315Y-103456450D01*
X118247590Y-103616410D01*
X118407550Y-103747685D01*
X118407553Y-103747686D01*
X118407555Y-103747688D01*
X118482912Y-103787967D01*
X118590046Y-103845232D01*
X118788066Y-103905300D01*
X118994000Y-103925583D01*
X119199934Y-103905300D01*
X119397954Y-103845232D01*
X119580450Y-103747685D01*
X119740410Y-103616410D01*
X119871685Y-103456450D01*
X119969232Y-103273954D01*
X120029300Y-103075934D01*
X120049583Y-102870000D01*
X120049583Y-102869999D01*
X120478417Y-102869999D01*
X120478417Y-102870000D01*
X120498699Y-103075930D01*
X120498700Y-103075935D01*
X120558766Y-103273949D01*
X120558768Y-103273954D01*
X120656311Y-103456444D01*
X120656313Y-103456448D01*
X120656315Y-103456450D01*
X120787590Y-103616410D01*
X120947550Y-103747685D01*
X120947553Y-103747686D01*
X120947555Y-103747688D01*
X121022912Y-103787967D01*
X121130046Y-103845232D01*
X121328066Y-103905300D01*
X121534000Y-103925583D01*
X121739934Y-103905300D01*
X121937954Y-103845232D01*
X122120450Y-103747685D01*
X122280410Y-103616410D01*
X122411685Y-103456450D01*
X122509232Y-103273954D01*
X122569300Y-103075934D01*
X122589583Y-102870000D01*
X122569300Y-102664066D01*
X122555932Y-102619998D01*
X122743363Y-102619998D01*
X122743364Y-102620000D01*
X123640988Y-102620000D01*
X123608075Y-102677007D01*
X123574000Y-102804174D01*
X123574000Y-102935826D01*
X123608075Y-103062993D01*
X123640988Y-103120000D01*
X122743364Y-103120000D01*
X122743363Y-103120001D01*
X122800567Y-103333487D01*
X122800568Y-103333489D01*
X122900398Y-103547575D01*
X123035892Y-103741081D01*
X123202918Y-103908107D01*
X123396426Y-104043603D01*
X123610503Y-104143428D01*
X123610519Y-104143434D01*
X123823998Y-104200635D01*
X123824000Y-104200634D01*
X123824000Y-103303012D01*
X123881007Y-103335925D01*
X124008174Y-103370000D01*
X124139826Y-103370000D01*
X124266993Y-103335925D01*
X124324000Y-103303012D01*
X124324000Y-104200634D01*
X124324001Y-104200635D01*
X124537480Y-104143434D01*
X124537496Y-104143428D01*
X124751573Y-104043603D01*
X124945081Y-103908107D01*
X125112107Y-103741081D01*
X125247601Y-103547575D01*
X125347431Y-103333489D01*
X125347432Y-103333487D01*
X125404636Y-103120001D01*
X125404636Y-103120000D01*
X124507012Y-103120000D01*
X124539925Y-103062993D01*
X124574000Y-102935826D01*
X124574000Y-102869999D01*
X125558417Y-102869999D01*
X125558417Y-102870000D01*
X125578699Y-103075930D01*
X125578700Y-103075935D01*
X125638766Y-103273949D01*
X125638768Y-103273954D01*
X125736311Y-103456444D01*
X125736313Y-103456448D01*
X125736315Y-103456450D01*
X125867590Y-103616410D01*
X126027550Y-103747685D01*
X126027553Y-103747686D01*
X126027555Y-103747688D01*
X126102912Y-103787967D01*
X126210046Y-103845232D01*
X126408066Y-103905300D01*
X126614000Y-103925583D01*
X126819934Y-103905300D01*
X127017954Y-103845232D01*
X127200450Y-103747685D01*
X127360410Y-103616410D01*
X127491685Y-103456450D01*
X127589232Y-103273954D01*
X127649300Y-103075934D01*
X127669583Y-102870000D01*
X127988451Y-102870000D01*
X128007185Y-103120000D01*
X128008617Y-103139102D01*
X128008617Y-103139104D01*
X128068663Y-103402188D01*
X128068666Y-103402195D01*
X128167257Y-103653398D01*
X128302185Y-103887102D01*
X128302187Y-103887105D01*
X128302191Y-103887111D01*
X128470432Y-104098077D01*
X128470435Y-104098080D01*
X128470439Y-104098085D01*
X128668259Y-104281635D01*
X128668264Y-104281638D01*
X128668267Y-104281641D01*
X128809101Y-104377659D01*
X128891226Y-104433651D01*
X129134359Y-104550738D01*
X129274469Y-104593956D01*
X129392217Y-104630277D01*
X129392221Y-104630278D01*
X129392228Y-104630280D01*
X129659071Y-104670500D01*
X129659077Y-104670500D01*
X129928923Y-104670500D01*
X129928929Y-104670500D01*
X130195772Y-104630280D01*
X130453641Y-104550738D01*
X130696775Y-104433651D01*
X130919741Y-104281635D01*
X131117561Y-104098085D01*
X131285815Y-103887102D01*
X131420743Y-103653398D01*
X131519334Y-103402195D01*
X131526683Y-103370000D01*
X131549484Y-103270099D01*
X131579383Y-103139103D01*
X131599549Y-102870000D01*
X131599407Y-102868110D01*
X131594616Y-102804174D01*
X131579383Y-102600897D01*
X131535016Y-102406512D01*
X131519336Y-102337811D01*
X131498040Y-102283550D01*
X131420743Y-102086602D01*
X131285815Y-101852898D01*
X131285810Y-101852892D01*
X131285808Y-101852888D01*
X131117567Y-101641922D01*
X131117564Y-101641919D01*
X131117561Y-101641915D01*
X130919741Y-101458365D01*
X130919735Y-101458361D01*
X130919732Y-101458358D01*
X130696775Y-101306349D01*
X130453641Y-101189262D01*
X130453638Y-101189261D01*
X130453636Y-101189260D01*
X130453632Y-101189259D01*
X130195782Y-101109722D01*
X130195773Y-101109720D01*
X130062350Y-101089610D01*
X129928929Y-101069500D01*
X129659071Y-101069500D01*
X129392226Y-101109720D01*
X129392217Y-101109722D01*
X129134367Y-101189259D01*
X129134363Y-101189260D01*
X128891225Y-101306349D01*
X128668267Y-101458358D01*
X128668260Y-101458363D01*
X128668259Y-101458365D01*
X128470439Y-101641915D01*
X128470437Y-101641917D01*
X128470432Y-101641922D01*
X128302191Y-101852888D01*
X128167258Y-102086599D01*
X128068663Y-102337811D01*
X128008617Y-102600895D01*
X128008617Y-102600897D01*
X127988593Y-102868110D01*
X127988451Y-102870000D01*
X127669583Y-102870000D01*
X127649300Y-102664066D01*
X127589232Y-102466046D01*
X127491685Y-102283550D01*
X127360410Y-102123590D01*
X127200450Y-101992315D01*
X127200448Y-101992313D01*
X127200444Y-101992311D01*
X127017954Y-101894768D01*
X127017949Y-101894766D01*
X126819935Y-101834700D01*
X126819930Y-101834699D01*
X126614000Y-101814417D01*
X126408069Y-101834699D01*
X126408064Y-101834700D01*
X126210050Y-101894766D01*
X126210045Y-101894768D01*
X126027555Y-101992311D01*
X126027544Y-101992319D01*
X125867591Y-102123588D01*
X125867588Y-102123591D01*
X125736319Y-102283544D01*
X125736311Y-102283555D01*
X125638768Y-102466045D01*
X125638766Y-102466050D01*
X125578700Y-102664064D01*
X125578699Y-102664069D01*
X125558417Y-102869999D01*
X124574000Y-102869999D01*
X124574000Y-102804174D01*
X124539925Y-102677007D01*
X124507012Y-102620000D01*
X125404636Y-102620000D01*
X125404636Y-102619998D01*
X125347432Y-102406512D01*
X125347431Y-102406510D01*
X125247600Y-102192422D01*
X125112109Y-101998920D01*
X124945081Y-101831892D01*
X124751575Y-101696398D01*
X124537489Y-101596568D01*
X124537487Y-101596567D01*
X124324001Y-101539363D01*
X124324000Y-101539364D01*
X124324000Y-102436988D01*
X124266993Y-102404075D01*
X124139826Y-102370000D01*
X124008174Y-102370000D01*
X123881007Y-102404075D01*
X123824000Y-102436988D01*
X123824000Y-101539364D01*
X123823998Y-101539363D01*
X123610512Y-101596567D01*
X123610510Y-101596568D01*
X123396422Y-101696399D01*
X123202920Y-101831890D01*
X123035890Y-101998920D01*
X122900399Y-102192422D01*
X122800568Y-102406510D01*
X122800567Y-102406512D01*
X122743363Y-102619998D01*
X122555932Y-102619998D01*
X122509232Y-102466046D01*
X122411685Y-102283550D01*
X122280410Y-102123590D01*
X122120450Y-101992315D01*
X122120448Y-101992313D01*
X122120444Y-101992311D01*
X121937954Y-101894768D01*
X121937949Y-101894766D01*
X121739935Y-101834700D01*
X121739930Y-101834699D01*
X121534000Y-101814417D01*
X121328069Y-101834699D01*
X121328064Y-101834700D01*
X121130050Y-101894766D01*
X121130045Y-101894768D01*
X120947555Y-101992311D01*
X120947544Y-101992319D01*
X120787591Y-102123588D01*
X120787588Y-102123591D01*
X120656319Y-102283544D01*
X120656311Y-102283555D01*
X120558768Y-102466045D01*
X120558766Y-102466050D01*
X120498700Y-102664064D01*
X120498699Y-102664069D01*
X120478417Y-102869999D01*
X120049583Y-102869999D01*
X120029300Y-102664066D01*
X119969232Y-102466046D01*
X119871685Y-102283550D01*
X119740410Y-102123590D01*
X119580450Y-101992315D01*
X119580448Y-101992313D01*
X119580444Y-101992311D01*
X119397954Y-101894768D01*
X119397949Y-101894766D01*
X119199935Y-101834700D01*
X119199930Y-101834699D01*
X118994000Y-101814417D01*
X118788069Y-101834699D01*
X118788064Y-101834700D01*
X118590050Y-101894766D01*
X118590045Y-101894768D01*
X118407555Y-101992311D01*
X118407544Y-101992319D01*
X118247591Y-102123588D01*
X118247588Y-102123591D01*
X118116319Y-102283544D01*
X118116311Y-102283555D01*
X118018768Y-102466045D01*
X118018766Y-102466050D01*
X117958700Y-102664064D01*
X117958699Y-102664069D01*
X117938417Y-102869999D01*
X116954000Y-102869999D01*
X116954000Y-102804174D01*
X116919925Y-102677007D01*
X116887012Y-102620000D01*
X117784636Y-102620000D01*
X117784636Y-102619998D01*
X117727432Y-102406512D01*
X117727431Y-102406510D01*
X117627600Y-102192422D01*
X117492109Y-101998920D01*
X117325081Y-101831892D01*
X117131575Y-101696398D01*
X116917489Y-101596568D01*
X116917487Y-101596567D01*
X116704001Y-101539363D01*
X116704000Y-101539364D01*
X116704000Y-102436988D01*
X116646993Y-102404075D01*
X116519826Y-102370000D01*
X116388174Y-102370000D01*
X116261007Y-102404075D01*
X116204000Y-102436988D01*
X116204000Y-101539364D01*
X116203998Y-101539363D01*
X115990512Y-101596567D01*
X115990510Y-101596568D01*
X115776422Y-101696399D01*
X115582920Y-101831890D01*
X115415890Y-101998920D01*
X115280399Y-102192422D01*
X115180568Y-102406510D01*
X115180567Y-102406512D01*
X115123363Y-102619998D01*
X114935932Y-102619998D01*
X114889232Y-102466046D01*
X114791685Y-102283550D01*
X114660410Y-102123590D01*
X114500450Y-101992315D01*
X114500448Y-101992313D01*
X114500444Y-101992311D01*
X114317954Y-101894768D01*
X114317949Y-101894766D01*
X114119935Y-101834700D01*
X114119930Y-101834699D01*
X113914000Y-101814417D01*
X113708069Y-101834699D01*
X113708064Y-101834700D01*
X113510050Y-101894766D01*
X113510045Y-101894768D01*
X113327555Y-101992311D01*
X113327544Y-101992319D01*
X113167591Y-102123588D01*
X113167588Y-102123591D01*
X113036319Y-102283544D01*
X113036311Y-102283555D01*
X112938768Y-102466045D01*
X112938766Y-102466050D01*
X112878700Y-102664064D01*
X112878699Y-102664069D01*
X112858417Y-102869999D01*
X112429583Y-102869999D01*
X112409300Y-102664066D01*
X112349232Y-102466046D01*
X112251685Y-102283550D01*
X112120410Y-102123590D01*
X111960450Y-101992315D01*
X111960448Y-101992313D01*
X111960444Y-101992311D01*
X111777954Y-101894768D01*
X111777949Y-101894766D01*
X111579935Y-101834700D01*
X111579930Y-101834699D01*
X111374000Y-101814417D01*
X111168069Y-101834699D01*
X111168064Y-101834700D01*
X110970050Y-101894766D01*
X110970045Y-101894768D01*
X110787555Y-101992311D01*
X110787544Y-101992319D01*
X110627591Y-102123588D01*
X110627588Y-102123591D01*
X110496319Y-102283544D01*
X110496311Y-102283555D01*
X110398768Y-102466045D01*
X110398766Y-102466050D01*
X110338700Y-102664064D01*
X110338699Y-102664069D01*
X110318417Y-102869999D01*
X110009549Y-102869999D01*
X110009407Y-102868110D01*
X110004616Y-102804174D01*
X109989383Y-102600897D01*
X109945016Y-102406512D01*
X109929336Y-102337811D01*
X109908040Y-102283550D01*
X109830743Y-102086602D01*
X109695815Y-101852898D01*
X109695810Y-101852892D01*
X109695808Y-101852888D01*
X109527567Y-101641922D01*
X109527564Y-101641919D01*
X109527561Y-101641915D01*
X109329741Y-101458365D01*
X109329735Y-101458361D01*
X109329732Y-101458358D01*
X109106775Y-101306349D01*
X108863641Y-101189262D01*
X108863638Y-101189261D01*
X108863636Y-101189260D01*
X108863632Y-101189259D01*
X108605782Y-101109722D01*
X108605773Y-101109720D01*
X108472350Y-101089610D01*
X108338929Y-101069500D01*
X108069071Y-101069500D01*
X107802226Y-101109720D01*
X107802217Y-101109722D01*
X107544367Y-101189259D01*
X107544363Y-101189260D01*
X107301225Y-101306349D01*
X107078267Y-101458358D01*
X107078260Y-101458363D01*
X107078259Y-101458365D01*
X106880439Y-101641915D01*
X106880437Y-101641917D01*
X106880432Y-101641922D01*
X106712191Y-101852888D01*
X106577258Y-102086599D01*
X106478663Y-102337811D01*
X106418617Y-102600895D01*
X106418617Y-102600897D01*
X106398593Y-102868110D01*
X106398451Y-102870000D01*
X105791557Y-102870000D01*
X105791500Y-102868110D01*
X105791500Y-99790000D01*
X124074353Y-99790000D01*
X124094834Y-99932455D01*
X124154623Y-100063372D01*
X124154623Y-100063374D01*
X124248871Y-100172142D01*
X124248872Y-100172143D01*
X124369947Y-100249953D01*
X124369949Y-100249953D01*
X124369950Y-100249954D01*
X124508036Y-100290499D01*
X124508038Y-100290500D01*
X124508039Y-100290500D01*
X124651962Y-100290500D01*
X124651962Y-100290499D01*
X124790053Y-100249953D01*
X124911128Y-100172143D01*
X125005377Y-100063373D01*
X125065165Y-99932457D01*
X125085647Y-99790000D01*
X125065165Y-99647543D01*
X125005377Y-99516627D01*
X125005376Y-99516625D01*
X124911128Y-99407857D01*
X124790053Y-99330047D01*
X124790051Y-99330046D01*
X124790049Y-99330045D01*
X124651963Y-99289500D01*
X124651961Y-99289500D01*
X124508039Y-99289500D01*
X124508037Y-99289500D01*
X124369950Y-99330045D01*
X124248871Y-99407857D01*
X124154623Y-99516625D01*
X124154623Y-99516627D01*
X124094834Y-99647544D01*
X124074353Y-99790000D01*
X105791500Y-99790000D01*
X105791500Y-97080432D01*
X110749500Y-97080432D01*
X110749500Y-98629567D01*
X110769978Y-98705986D01*
X110769980Y-98705992D01*
X110789614Y-98739999D01*
X110809539Y-98774510D01*
X110809544Y-98774516D01*
X110982371Y-98947343D01*
X111000677Y-98991537D01*
X111000041Y-99000430D01*
X110994353Y-99039998D01*
X110994353Y-99039999D01*
X111014834Y-99182455D01*
X111014835Y-99182457D01*
X111063720Y-99289500D01*
X111074623Y-99313372D01*
X111074623Y-99313374D01*
X111156493Y-99407857D01*
X111168872Y-99422143D01*
X111289947Y-99499953D01*
X111289949Y-99499953D01*
X111289950Y-99499954D01*
X111428036Y-99540499D01*
X111428038Y-99540500D01*
X111428039Y-99540500D01*
X111571962Y-99540500D01*
X111571962Y-99540499D01*
X111710053Y-99499953D01*
X111831128Y-99422143D01*
X111925377Y-99313373D01*
X111985165Y-99182457D01*
X112005647Y-99040000D01*
X111985165Y-98897543D01*
X111925377Y-98766627D01*
X111925376Y-98766625D01*
X111902304Y-98739999D01*
X116844353Y-98739999D01*
X116864834Y-98882455D01*
X116924623Y-99013372D01*
X116924623Y-99013374D01*
X116947694Y-99039999D01*
X117018872Y-99122143D01*
X117139947Y-99199953D01*
X117139949Y-99199953D01*
X117139950Y-99199954D01*
X117278036Y-99240499D01*
X117278038Y-99240500D01*
X117278039Y-99240500D01*
X117421962Y-99240500D01*
X117421962Y-99240499D01*
X117560053Y-99199953D01*
X117681128Y-99122143D01*
X117775377Y-99013373D01*
X117835165Y-98882457D01*
X117855647Y-98740000D01*
X117850757Y-98705992D01*
X117835165Y-98597544D01*
X117835165Y-98597543D01*
X117775377Y-98466627D01*
X117775376Y-98466625D01*
X117681128Y-98357857D01*
X117560053Y-98280047D01*
X117560051Y-98280046D01*
X117560049Y-98280045D01*
X117421963Y-98239500D01*
X117421961Y-98239500D01*
X117278039Y-98239500D01*
X117278037Y-98239500D01*
X117139950Y-98280045D01*
X117018871Y-98357857D01*
X116924623Y-98466625D01*
X116924623Y-98466627D01*
X116864834Y-98597544D01*
X116844353Y-98739999D01*
X111902304Y-98739999D01*
X111831128Y-98657857D01*
X111814766Y-98647342D01*
X111710053Y-98580047D01*
X111710051Y-98580046D01*
X111710049Y-98580045D01*
X111571963Y-98539500D01*
X111571961Y-98539500D01*
X111450359Y-98539500D01*
X111406165Y-98521194D01*
X111368806Y-98483835D01*
X111350500Y-98439641D01*
X111350500Y-97310000D01*
X119914353Y-97310000D01*
X119934834Y-97452455D01*
X119994623Y-97583372D01*
X119994623Y-97583374D01*
X120088871Y-97692142D01*
X120088872Y-97692143D01*
X120209947Y-97769953D01*
X120209949Y-97769953D01*
X120209950Y-97769954D01*
X120348036Y-97810499D01*
X120348038Y-97810500D01*
X120348039Y-97810500D01*
X120491962Y-97810500D01*
X120491962Y-97810499D01*
X120630053Y-97769953D01*
X120751128Y-97692143D01*
X120845377Y-97583373D01*
X120905165Y-97452457D01*
X120925647Y-97310000D01*
X120905165Y-97167543D01*
X120845377Y-97036627D01*
X120845376Y-97036625D01*
X120751128Y-96927857D01*
X120630053Y-96850047D01*
X120630051Y-96850046D01*
X120630049Y-96850045D01*
X120491963Y-96809500D01*
X120491961Y-96809500D01*
X120348039Y-96809500D01*
X120348037Y-96809500D01*
X120209950Y-96850045D01*
X120088871Y-96927857D01*
X119994623Y-97036625D01*
X119994623Y-97036627D01*
X119934834Y-97167544D01*
X119914353Y-97310000D01*
X111350500Y-97310000D01*
X111350500Y-97270359D01*
X111368806Y-97226165D01*
X113676165Y-94918806D01*
X113720359Y-94900500D01*
X113832000Y-94900500D01*
X113876194Y-94918806D01*
X113894500Y-94963000D01*
X113894500Y-95099997D01*
X113899651Y-95145728D01*
X113937910Y-95225171D01*
X113940593Y-95272931D01*
X113930466Y-95291255D01*
X113914851Y-95310836D01*
X113914850Y-95310837D01*
X113894500Y-95400000D01*
X113894500Y-95971890D01*
X113902824Y-96029787D01*
X113943331Y-96167739D01*
X113943331Y-96167740D01*
X113962609Y-96209954D01*
X113967629Y-96220945D01*
X113986623Y-96250500D01*
X114045361Y-96341900D01*
X114083668Y-96386108D01*
X114192328Y-96480260D01*
X114192329Y-96480261D01*
X114219689Y-96497844D01*
X114241532Y-96511881D01*
X114241536Y-96511883D01*
X114241535Y-96511883D01*
X114356505Y-96564387D01*
X114372317Y-96571609D01*
X114428439Y-96588088D01*
X114522955Y-96601677D01*
X114570752Y-96608550D01*
X114570754Y-96608550D01*
X114629247Y-96608550D01*
X114646035Y-96606136D01*
X114654930Y-96605500D01*
X115045070Y-96605500D01*
X115053965Y-96606136D01*
X115070753Y-96608550D01*
X115070755Y-96608550D01*
X115129248Y-96608550D01*
X115170172Y-96602665D01*
X115271561Y-96588088D01*
X115327683Y-96571609D01*
X115458468Y-96511881D01*
X115507673Y-96480259D01*
X115616334Y-96386105D01*
X115654639Y-96341899D01*
X115729524Y-96225374D01*
X115765925Y-96198795D01*
X115835985Y-96180022D01*
X115835983Y-96180022D01*
X115835989Y-96180021D01*
X115904511Y-96140460D01*
X115960460Y-96084511D01*
X116110460Y-95934511D01*
X116112776Y-95930500D01*
X116127553Y-95904904D01*
X116165503Y-95875784D01*
X116199288Y-95876186D01*
X116236044Y-95886978D01*
X116246179Y-95889954D01*
X116248036Y-95890499D01*
X116248038Y-95890500D01*
X116248039Y-95890500D01*
X116391962Y-95890500D01*
X116391962Y-95890499D01*
X116530053Y-95849953D01*
X116651128Y-95772143D01*
X116745377Y-95663373D01*
X116805165Y-95532457D01*
X116825647Y-95390000D01*
X116805165Y-95247543D01*
X116774319Y-95180000D01*
X121594353Y-95180000D01*
X121614834Y-95322455D01*
X121674623Y-95453372D01*
X121674623Y-95453374D01*
X121768872Y-95562143D01*
X121768873Y-95562144D01*
X121770790Y-95563376D01*
X121771537Y-95564453D01*
X121772251Y-95565071D01*
X121772093Y-95565253D01*
X121798072Y-95602668D01*
X121799500Y-95615954D01*
X121799500Y-97219567D01*
X121819978Y-97295986D01*
X121819978Y-97295988D01*
X121857202Y-97360461D01*
X121857202Y-97360463D01*
X121859537Y-97364508D01*
X123142371Y-98647342D01*
X123160677Y-98691536D01*
X123160041Y-98700429D01*
X123154353Y-98739998D01*
X123154353Y-98739999D01*
X123174834Y-98882455D01*
X123234623Y-99013372D01*
X123234623Y-99013374D01*
X123257694Y-99039999D01*
X123328872Y-99122143D01*
X123449947Y-99199953D01*
X123449949Y-99199953D01*
X123449950Y-99199954D01*
X123588036Y-99240499D01*
X123588038Y-99240500D01*
X123588039Y-99240500D01*
X123731962Y-99240500D01*
X123731962Y-99240499D01*
X123870053Y-99199953D01*
X123991128Y-99122143D01*
X124085377Y-99013373D01*
X124145165Y-98882457D01*
X124165647Y-98740000D01*
X124160757Y-98705992D01*
X124145165Y-98597544D01*
X124145165Y-98597543D01*
X124085377Y-98466627D01*
X124085376Y-98466625D01*
X123991128Y-98357857D01*
X123870053Y-98280047D01*
X123870051Y-98280046D01*
X123870049Y-98280045D01*
X123731963Y-98239500D01*
X123731961Y-98239500D01*
X123610359Y-98239500D01*
X123566165Y-98221194D01*
X122418806Y-97073835D01*
X122400500Y-97029641D01*
X122400500Y-95615954D01*
X122418806Y-95571760D01*
X122429210Y-95563376D01*
X122431126Y-95562144D01*
X122431125Y-95562144D01*
X122431128Y-95562143D01*
X122525377Y-95453373D01*
X122536051Y-95430000D01*
X122804353Y-95430000D01*
X122824834Y-95572455D01*
X122824835Y-95572457D01*
X122866355Y-95663373D01*
X122884623Y-95703372D01*
X122884623Y-95703374D01*
X122925025Y-95750000D01*
X122978872Y-95812143D01*
X123099947Y-95889953D01*
X123099949Y-95889953D01*
X123099950Y-95889954D01*
X123238036Y-95930499D01*
X123238038Y-95930500D01*
X123238039Y-95930500D01*
X123381962Y-95930500D01*
X123381962Y-95930499D01*
X123520053Y-95889953D01*
X123641128Y-95812143D01*
X123694975Y-95750000D01*
X125704353Y-95750000D01*
X125724834Y-95892455D01*
X125724835Y-95892457D01*
X125742207Y-95930497D01*
X125784623Y-96023372D01*
X125784623Y-96023374D01*
X125837599Y-96084511D01*
X125878872Y-96132143D01*
X125999947Y-96209953D01*
X125999949Y-96209953D01*
X125999950Y-96209954D01*
X126138036Y-96250499D01*
X126138038Y-96250500D01*
X126138039Y-96250500D01*
X126281962Y-96250500D01*
X126281962Y-96250499D01*
X126420053Y-96209953D01*
X126541128Y-96132143D01*
X126635377Y-96023373D01*
X126695165Y-95892457D01*
X126715647Y-95750000D01*
X126695165Y-95607543D01*
X126635377Y-95476627D01*
X126635376Y-95476625D01*
X126541128Y-95367857D01*
X126470484Y-95322457D01*
X126420053Y-95290047D01*
X126420051Y-95290046D01*
X126420049Y-95290045D01*
X126281963Y-95249500D01*
X126281961Y-95249500D01*
X126138039Y-95249500D01*
X126138037Y-95249500D01*
X125999950Y-95290045D01*
X125878871Y-95367857D01*
X125784623Y-95476625D01*
X125784623Y-95476627D01*
X125724834Y-95607544D01*
X125704353Y-95750000D01*
X123694975Y-95750000D01*
X123735377Y-95703373D01*
X123795165Y-95572457D01*
X123815647Y-95430000D01*
X123795165Y-95287543D01*
X123735377Y-95156627D01*
X123735376Y-95156625D01*
X123641128Y-95047857D01*
X123641127Y-95047856D01*
X123639208Y-95046623D01*
X123638459Y-95045544D01*
X123637751Y-95044931D01*
X123637907Y-95044750D01*
X123611928Y-95007329D01*
X123610500Y-94994046D01*
X123610500Y-94390358D01*
X123628805Y-94346165D01*
X123706164Y-94268805D01*
X123750358Y-94250500D01*
X123871962Y-94250500D01*
X123871962Y-94250499D01*
X124010053Y-94209953D01*
X124131128Y-94132143D01*
X124225377Y-94023373D01*
X124285165Y-93892457D01*
X124305647Y-93750000D01*
X124285165Y-93607543D01*
X124225377Y-93476627D01*
X124225376Y-93476625D01*
X124131128Y-93367857D01*
X124076041Y-93332455D01*
X124010053Y-93290047D01*
X124010051Y-93290046D01*
X124010049Y-93290045D01*
X123871963Y-93249500D01*
X123871961Y-93249500D01*
X123728039Y-93249500D01*
X123728037Y-93249500D01*
X123589950Y-93290045D01*
X123468871Y-93367857D01*
X123374623Y-93476625D01*
X123374623Y-93476627D01*
X123314834Y-93607544D01*
X123294353Y-93750000D01*
X123294353Y-93750001D01*
X123300041Y-93789569D01*
X123288210Y-93835918D01*
X123282371Y-93842656D01*
X123136913Y-93988116D01*
X123125489Y-93999540D01*
X123105291Y-94019738D01*
X123069541Y-94055487D01*
X123029978Y-94124011D01*
X123029978Y-94124013D01*
X123009500Y-94200432D01*
X123009500Y-94994046D01*
X122991194Y-95038240D01*
X122980792Y-95046623D01*
X122978872Y-95047856D01*
X122978871Y-95047857D01*
X122884623Y-95156625D01*
X122884623Y-95156627D01*
X122824834Y-95287544D01*
X122804353Y-95430000D01*
X122536051Y-95430000D01*
X122585165Y-95322457D01*
X122605647Y-95180000D01*
X122585165Y-95037543D01*
X122525377Y-94906627D01*
X122525376Y-94906625D01*
X122431128Y-94797857D01*
X122426423Y-94794833D01*
X122310053Y-94720047D01*
X122310051Y-94720046D01*
X122310049Y-94720045D01*
X122171963Y-94679500D01*
X122171961Y-94679500D01*
X122028039Y-94679500D01*
X122028037Y-94679500D01*
X121889950Y-94720045D01*
X121768871Y-94797857D01*
X121674623Y-94906625D01*
X121674623Y-94906627D01*
X121614834Y-95037544D01*
X121594353Y-95180000D01*
X116774319Y-95180000D01*
X116745377Y-95116627D01*
X116745376Y-95116625D01*
X116651126Y-95007854D01*
X116564639Y-94952273D01*
X116537357Y-94912980D01*
X116545851Y-94865905D01*
X116576509Y-94842959D01*
X116575985Y-94841811D01*
X116580047Y-94839955D01*
X116580047Y-94839954D01*
X116580053Y-94839953D01*
X116701128Y-94762143D01*
X116795377Y-94653373D01*
X116855165Y-94522457D01*
X116875647Y-94380000D01*
X116855165Y-94237543D01*
X116795377Y-94106627D01*
X116795376Y-94106625D01*
X116701128Y-93997857D01*
X116685971Y-93988116D01*
X116580053Y-93920047D01*
X116580051Y-93920046D01*
X116580049Y-93920045D01*
X116441963Y-93879500D01*
X116441961Y-93879500D01*
X116298039Y-93879500D01*
X116298037Y-93879500D01*
X116159948Y-93920046D01*
X116159947Y-93920046D01*
X116038873Y-93997855D01*
X116038871Y-93997857D01*
X115979978Y-94065823D01*
X115948922Y-94085264D01*
X115894012Y-94099978D01*
X115838301Y-94132143D01*
X115838300Y-94132142D01*
X115825491Y-94139538D01*
X115825489Y-94139540D01*
X115769059Y-94195969D01*
X115724865Y-94214274D01*
X115680671Y-94195968D01*
X115672294Y-94185572D01*
X115654639Y-94158101D01*
X115632146Y-94132143D01*
X115616331Y-94113891D01*
X115507671Y-94019739D01*
X115507670Y-94019738D01*
X115458463Y-93988116D01*
X115458464Y-93988116D01*
X115327684Y-93928391D01*
X115271563Y-93911912D01*
X115129248Y-93891450D01*
X115129246Y-93891450D01*
X115070755Y-93891450D01*
X115070753Y-93891450D01*
X115053965Y-93893864D01*
X115045070Y-93894500D01*
X114654930Y-93894500D01*
X114646035Y-93893864D01*
X114629247Y-93891450D01*
X114629245Y-93891450D01*
X114570754Y-93891450D01*
X114570752Y-93891450D01*
X114428436Y-93911912D01*
X114372315Y-93928391D01*
X114241536Y-93988116D01*
X114192329Y-94019738D01*
X114192328Y-94019739D01*
X114083668Y-94113891D01*
X114045361Y-94158099D01*
X113972941Y-94270790D01*
X113933648Y-94298072D01*
X113920362Y-94299500D01*
X113530432Y-94299500D01*
X113454010Y-94319979D01*
X113454008Y-94319979D01*
X113432741Y-94332259D01*
X113432740Y-94332260D01*
X113385488Y-94359540D01*
X112081657Y-95663372D01*
X110865489Y-96879540D01*
X110837515Y-96907514D01*
X110809541Y-96935487D01*
X110769978Y-97004011D01*
X110769978Y-97004013D01*
X110749500Y-97080432D01*
X105791500Y-97080432D01*
X105791500Y-94750000D01*
X111344353Y-94750000D01*
X111364834Y-94892455D01*
X111364835Y-94892457D01*
X111393354Y-94954905D01*
X111424623Y-95023372D01*
X111424623Y-95023374D01*
X111505427Y-95116627D01*
X111518872Y-95132143D01*
X111639947Y-95209953D01*
X111774633Y-95249500D01*
X111778036Y-95250499D01*
X111778038Y-95250500D01*
X111778039Y-95250500D01*
X111921962Y-95250500D01*
X111921962Y-95250499D01*
X112060053Y-95209953D01*
X112181128Y-95132143D01*
X112275377Y-95023373D01*
X112335165Y-94892457D01*
X112355647Y-94750000D01*
X112335165Y-94607543D01*
X112275377Y-94476627D01*
X112275376Y-94476625D01*
X112181128Y-94367857D01*
X112147373Y-94346164D01*
X112060053Y-94290047D01*
X112060051Y-94290046D01*
X112060049Y-94290045D01*
X111921963Y-94249500D01*
X111921961Y-94249500D01*
X111778039Y-94249500D01*
X111778037Y-94249500D01*
X111639950Y-94290045D01*
X111518871Y-94367857D01*
X111424623Y-94476625D01*
X111424623Y-94476627D01*
X111364834Y-94607544D01*
X111344353Y-94750000D01*
X105791500Y-94750000D01*
X105791500Y-93190000D01*
X119944353Y-93190000D01*
X119964834Y-93332455D01*
X120024623Y-93463372D01*
X120024623Y-93463374D01*
X120118871Y-93572142D01*
X120118872Y-93572143D01*
X120239947Y-93649953D01*
X120239949Y-93649953D01*
X120239950Y-93649954D01*
X120378036Y-93690499D01*
X120378038Y-93690500D01*
X120378039Y-93690500D01*
X120521962Y-93690500D01*
X120521962Y-93690499D01*
X120660053Y-93649953D01*
X120781128Y-93572143D01*
X120875377Y-93463373D01*
X120935165Y-93332457D01*
X120955647Y-93190000D01*
X120935165Y-93047543D01*
X120875377Y-92916627D01*
X120875376Y-92916625D01*
X120781128Y-92807857D01*
X120660053Y-92730047D01*
X120660051Y-92730046D01*
X120660049Y-92730045D01*
X120521963Y-92689500D01*
X120521961Y-92689500D01*
X120378039Y-92689500D01*
X120378037Y-92689500D01*
X120239950Y-92730045D01*
X120118871Y-92807857D01*
X120024623Y-92916625D01*
X120024623Y-92916627D01*
X119964834Y-93047544D01*
X119944353Y-93190000D01*
X105791500Y-93190000D01*
X105791500Y-87629996D01*
X106398451Y-87629996D01*
X106398451Y-87630003D01*
X106418617Y-87899102D01*
X106418617Y-87899104D01*
X106478663Y-88162188D01*
X106478666Y-88162195D01*
X106577257Y-88413398D01*
X106712185Y-88647102D01*
X106712187Y-88647105D01*
X106712191Y-88647111D01*
X106880432Y-88858077D01*
X106880435Y-88858080D01*
X106880439Y-88858085D01*
X107078259Y-89041635D01*
X107078264Y-89041638D01*
X107078267Y-89041641D01*
X107219101Y-89137659D01*
X107301226Y-89193651D01*
X107544359Y-89310738D01*
X107684469Y-89353956D01*
X107802217Y-89390277D01*
X107802221Y-89390278D01*
X107802228Y-89390280D01*
X108069071Y-89430500D01*
X108069077Y-89430500D01*
X108338923Y-89430500D01*
X108338929Y-89430500D01*
X108605772Y-89390280D01*
X108863641Y-89310738D01*
X109106775Y-89193651D01*
X109329741Y-89041635D01*
X109527561Y-88858085D01*
X109695815Y-88647102D01*
X109830743Y-88413398D01*
X109929334Y-88162195D01*
X109989383Y-87899103D01*
X110009549Y-87630000D01*
X110009549Y-87629996D01*
X127988451Y-87629996D01*
X127988451Y-87630003D01*
X128008617Y-87899102D01*
X128008617Y-87899104D01*
X128068663Y-88162188D01*
X128068666Y-88162195D01*
X128167257Y-88413398D01*
X128302185Y-88647102D01*
X128302187Y-88647105D01*
X128302191Y-88647111D01*
X128470432Y-88858077D01*
X128470435Y-88858080D01*
X128470439Y-88858085D01*
X128668259Y-89041635D01*
X128668264Y-89041638D01*
X128668267Y-89041641D01*
X128809101Y-89137659D01*
X128891226Y-89193651D01*
X129134359Y-89310738D01*
X129274469Y-89353956D01*
X129392217Y-89390277D01*
X129392221Y-89390278D01*
X129392228Y-89390280D01*
X129659071Y-89430500D01*
X129659077Y-89430500D01*
X129928923Y-89430500D01*
X129928929Y-89430500D01*
X130195772Y-89390280D01*
X130453641Y-89310738D01*
X130696775Y-89193651D01*
X130919741Y-89041635D01*
X131117561Y-88858085D01*
X131285815Y-88647102D01*
X131420743Y-88413398D01*
X131519334Y-88162195D01*
X131579383Y-87899103D01*
X131599549Y-87630000D01*
X131599231Y-87625761D01*
X131593323Y-87546919D01*
X131579383Y-87360897D01*
X131551305Y-87237881D01*
X131519336Y-87097811D01*
X131496271Y-87039043D01*
X131420743Y-86846602D01*
X131285815Y-86612898D01*
X131285810Y-86612892D01*
X131285808Y-86612888D01*
X131117567Y-86401922D01*
X131117564Y-86401919D01*
X131117561Y-86401915D01*
X130919741Y-86218365D01*
X130919735Y-86218361D01*
X130919732Y-86218358D01*
X130696775Y-86066349D01*
X130607154Y-86023190D01*
X130453641Y-85949262D01*
X130453638Y-85949261D01*
X130453636Y-85949260D01*
X130453632Y-85949259D01*
X130195782Y-85869722D01*
X130195773Y-85869720D01*
X129996734Y-85839720D01*
X129928929Y-85829500D01*
X129659071Y-85829500D01*
X129392226Y-85869720D01*
X129392217Y-85869722D01*
X129134367Y-85949259D01*
X129134363Y-85949260D01*
X128891225Y-86066349D01*
X128668267Y-86218358D01*
X128668260Y-86218363D01*
X128668259Y-86218365D01*
X128470439Y-86401915D01*
X128470437Y-86401917D01*
X128470432Y-86401922D01*
X128302191Y-86612888D01*
X128167258Y-86846599D01*
X128068663Y-87097811D01*
X128008617Y-87360895D01*
X128008617Y-87360897D01*
X127988451Y-87629996D01*
X110009549Y-87629996D01*
X110009231Y-87625761D01*
X110003323Y-87546919D01*
X109989383Y-87360897D01*
X109961305Y-87237881D01*
X109929336Y-87097811D01*
X109906271Y-87039043D01*
X109830743Y-86846602D01*
X109695815Y-86612898D01*
X109695810Y-86612892D01*
X109695808Y-86612888D01*
X109527567Y-86401922D01*
X109527564Y-86401919D01*
X109527561Y-86401915D01*
X109329741Y-86218365D01*
X109329735Y-86218361D01*
X109329732Y-86218358D01*
X109106775Y-86066349D01*
X109017154Y-86023190D01*
X108863641Y-85949262D01*
X108863638Y-85949261D01*
X108863636Y-85949260D01*
X108863632Y-85949259D01*
X108605782Y-85869722D01*
X108605773Y-85869720D01*
X108406734Y-85839720D01*
X108338929Y-85829500D01*
X108069071Y-85829500D01*
X107802226Y-85869720D01*
X107802217Y-85869722D01*
X107544367Y-85949259D01*
X107544363Y-85949260D01*
X107301225Y-86066349D01*
X107078267Y-86218358D01*
X107078260Y-86218363D01*
X107078259Y-86218365D01*
X106880439Y-86401915D01*
X106880437Y-86401917D01*
X106880432Y-86401922D01*
X106712191Y-86612888D01*
X106577258Y-86846599D01*
X106478663Y-87097811D01*
X106418617Y-87360895D01*
X106418617Y-87360897D01*
X106398451Y-87629996D01*
X105791500Y-87629996D01*
X105791500Y-87415076D01*
X105792172Y-87405939D01*
X105817009Y-87237881D01*
X105831119Y-87142404D01*
X105832569Y-87135397D01*
X105902617Y-86873726D01*
X105904859Y-86866935D01*
X106004431Y-86615005D01*
X106007431Y-86608530D01*
X106135211Y-86369671D01*
X106138950Y-86363556D01*
X106293252Y-86140920D01*
X106297647Y-86135297D01*
X106476456Y-85931792D01*
X106481475Y-85926703D01*
X106682406Y-85745042D01*
X106687976Y-85740558D01*
X106908414Y-85583106D01*
X106914464Y-85579290D01*
X107151477Y-85448140D01*
X107157923Y-85445042D01*
X107408400Y-85341915D01*
X107415177Y-85339570D01*
X107675808Y-85265824D01*
X107682801Y-85264272D01*
X107950185Y-85220873D01*
X107957301Y-85220133D01*
X108229726Y-85207573D01*
X108233271Y-85207512D01*
X108260574Y-85207822D01*
X108260575Y-85207821D01*
X108265236Y-85207874D01*
X108268743Y-85207500D01*
X129735899Y-85207500D01*
X129763111Y-85207500D01*
X129766884Y-85207613D01*
G37*
%TD.AperFunction*%
%TD*%
M02*
