%TF.GenerationSoftware,KiCad,Pcbnew,8.0.3-8.0.3-0~ubuntu23.10.1*%
%TF.CreationDate,2024-08-01T21:15:56-04:00*%
%TF.ProjectId,OPT4001,4f505434-3030-4312-9e6b-696361645f70,rev?*%
%TF.SameCoordinates,Original*%
%TF.FileFunction,Legend,Top*%
%TF.FilePolarity,Positive*%
%FSLAX46Y46*%
G04 Gerber Fmt 4.6, Leading zero omitted, Abs format (unit mm)*
G04 Created by KiCad (PCBNEW 8.0.3-8.0.3-0~ubuntu23.10.1) date 2024-08-01 21:15:56*
%MOMM*%
%LPD*%
G01*
G04 APERTURE LIST*
G04 Aperture macros list*
%AMRoundRect*
0 Rectangle with rounded corners*
0 $1 Rounding radius*
0 $2 $3 $4 $5 $6 $7 $8 $9 X,Y pos of 4 corners*
0 Add a 4 corners polygon primitive as box body*
4,1,4,$2,$3,$4,$5,$6,$7,$8,$9,$2,$3,0*
0 Add four circle primitives for the rounded corners*
1,1,$1+$1,$2,$3*
1,1,$1+$1,$4,$5*
1,1,$1+$1,$6,$7*
1,1,$1+$1,$8,$9*
0 Add four rect primitives between the rounded corners*
20,1,$1+$1,$2,$3,$4,$5,0*
20,1,$1+$1,$4,$5,$6,$7,0*
20,1,$1+$1,$6,$7,$8,$9,0*
20,1,$1+$1,$8,$9,$2,$3,0*%
G04 Aperture macros list end*
%ADD10C,0.174000*%
%ADD11C,0.200000*%
%ADD12C,0.250000*%
%ADD13C,0.120000*%
%ADD14C,0.203200*%
%ADD15RoundRect,0.135000X-0.185000X0.135000X-0.185000X-0.135000X0.185000X-0.135000X0.185000X0.135000X0*%
%ADD16C,3.200000*%
%ADD17RoundRect,0.150000X-0.625000X0.150000X-0.625000X-0.150000X0.625000X-0.150000X0.625000X0.150000X0*%
%ADD18RoundRect,0.250000X-0.650000X0.350000X-0.650000X-0.350000X0.650000X-0.350000X0.650000X0.350000X0*%
%ADD19RoundRect,0.135000X-0.135000X-0.185000X0.135000X-0.185000X0.135000X0.185000X-0.135000X0.185000X0*%
%ADD20RoundRect,0.140000X0.140000X0.170000X-0.140000X0.170000X-0.140000X-0.170000X0.140000X-0.170000X0*%
%ADD21RoundRect,0.150000X-0.512500X-0.150000X0.512500X-0.150000X0.512500X0.150000X-0.512500X0.150000X0*%
%ADD22RoundRect,0.135000X0.185000X-0.135000X0.185000X0.135000X-0.185000X0.135000X-0.185000X-0.135000X0*%
%ADD23RoundRect,0.140000X0.170000X-0.140000X0.170000X0.140000X-0.170000X0.140000X-0.170000X-0.140000X0*%
%ADD24RoundRect,0.140000X-0.170000X0.140000X-0.170000X-0.140000X0.170000X-0.140000X0.170000X0.140000X0*%
%ADD25RoundRect,0.150000X0.625000X-0.150000X0.625000X0.150000X-0.625000X0.150000X-0.625000X-0.150000X0*%
%ADD26RoundRect,0.250000X0.650000X-0.350000X0.650000X0.350000X-0.650000X0.350000X-0.650000X-0.350000X0*%
%ADD27R,0.720000X0.300000*%
%ADD28O,1.700000X1.700000*%
%ADD29C,1.700000*%
G04 APERTURE END LIST*
D10*
X117887086Y-101545603D02*
X118011372Y-101587031D01*
X118011372Y-101587031D02*
X118218514Y-101587031D01*
X118218514Y-101587031D02*
X118301372Y-101545603D01*
X118301372Y-101545603D02*
X118342800Y-101504174D01*
X118342800Y-101504174D02*
X118384229Y-101421317D01*
X118384229Y-101421317D02*
X118384229Y-101338460D01*
X118384229Y-101338460D02*
X118342800Y-101255603D01*
X118342800Y-101255603D02*
X118301372Y-101214174D01*
X118301372Y-101214174D02*
X118218514Y-101172745D01*
X118218514Y-101172745D02*
X118052800Y-101131317D01*
X118052800Y-101131317D02*
X117969943Y-101089888D01*
X117969943Y-101089888D02*
X117928514Y-101048460D01*
X117928514Y-101048460D02*
X117887086Y-100965603D01*
X117887086Y-100965603D02*
X117887086Y-100882745D01*
X117887086Y-100882745D02*
X117928514Y-100799888D01*
X117928514Y-100799888D02*
X117969943Y-100758460D01*
X117969943Y-100758460D02*
X118052800Y-100717031D01*
X118052800Y-100717031D02*
X118259943Y-100717031D01*
X118259943Y-100717031D02*
X118384229Y-100758460D01*
X119254228Y-101504174D02*
X119212800Y-101545603D01*
X119212800Y-101545603D02*
X119088514Y-101587031D01*
X119088514Y-101587031D02*
X119005657Y-101587031D01*
X119005657Y-101587031D02*
X118881371Y-101545603D01*
X118881371Y-101545603D02*
X118798514Y-101462745D01*
X118798514Y-101462745D02*
X118757085Y-101379888D01*
X118757085Y-101379888D02*
X118715657Y-101214174D01*
X118715657Y-101214174D02*
X118715657Y-101089888D01*
X118715657Y-101089888D02*
X118757085Y-100924174D01*
X118757085Y-100924174D02*
X118798514Y-100841317D01*
X118798514Y-100841317D02*
X118881371Y-100758460D01*
X118881371Y-100758460D02*
X119005657Y-100717031D01*
X119005657Y-100717031D02*
X119088514Y-100717031D01*
X119088514Y-100717031D02*
X119212800Y-100758460D01*
X119212800Y-100758460D02*
X119254228Y-100799888D01*
X120041371Y-101587031D02*
X119627085Y-101587031D01*
X119627085Y-101587031D02*
X119627085Y-100717031D01*
X123339943Y-100758460D02*
X123257086Y-100717031D01*
X123257086Y-100717031D02*
X123132800Y-100717031D01*
X123132800Y-100717031D02*
X123008514Y-100758460D01*
X123008514Y-100758460D02*
X122925657Y-100841317D01*
X122925657Y-100841317D02*
X122884228Y-100924174D01*
X122884228Y-100924174D02*
X122842800Y-101089888D01*
X122842800Y-101089888D02*
X122842800Y-101214174D01*
X122842800Y-101214174D02*
X122884228Y-101379888D01*
X122884228Y-101379888D02*
X122925657Y-101462745D01*
X122925657Y-101462745D02*
X123008514Y-101545603D01*
X123008514Y-101545603D02*
X123132800Y-101587031D01*
X123132800Y-101587031D02*
X123215657Y-101587031D01*
X123215657Y-101587031D02*
X123339943Y-101545603D01*
X123339943Y-101545603D02*
X123381371Y-101504174D01*
X123381371Y-101504174D02*
X123381371Y-101214174D01*
X123381371Y-101214174D02*
X123215657Y-101214174D01*
X123754228Y-101587031D02*
X123754228Y-100717031D01*
X123754228Y-100717031D02*
X124251371Y-101587031D01*
X124251371Y-101587031D02*
X124251371Y-100717031D01*
X124665657Y-101587031D02*
X124665657Y-100717031D01*
X124665657Y-100717031D02*
X124872800Y-100717031D01*
X124872800Y-100717031D02*
X124997086Y-100758460D01*
X124997086Y-100758460D02*
X125079943Y-100841317D01*
X125079943Y-100841317D02*
X125121372Y-100924174D01*
X125121372Y-100924174D02*
X125162800Y-101089888D01*
X125162800Y-101089888D02*
X125162800Y-101214174D01*
X125162800Y-101214174D02*
X125121372Y-101379888D01*
X125121372Y-101379888D02*
X125079943Y-101462745D01*
X125079943Y-101462745D02*
X124997086Y-101545603D01*
X124997086Y-101545603D02*
X124872800Y-101587031D01*
X124872800Y-101587031D02*
X124665657Y-101587031D01*
X125755656Y-105092231D02*
X125755656Y-104222231D01*
X126169942Y-105092231D02*
X126169942Y-104222231D01*
X126169942Y-104222231D02*
X126667085Y-105092231D01*
X126667085Y-105092231D02*
X126667085Y-104222231D01*
X126957086Y-104222231D02*
X127454229Y-104222231D01*
X127205657Y-105092231D02*
X127205657Y-104222231D01*
X125635514Y-103980703D02*
X127450086Y-103980703D01*
X120406372Y-105050803D02*
X120530658Y-105092231D01*
X120530658Y-105092231D02*
X120737800Y-105092231D01*
X120737800Y-105092231D02*
X120820658Y-105050803D01*
X120820658Y-105050803D02*
X120862086Y-105009374D01*
X120862086Y-105009374D02*
X120903515Y-104926517D01*
X120903515Y-104926517D02*
X120903515Y-104843660D01*
X120903515Y-104843660D02*
X120862086Y-104760803D01*
X120862086Y-104760803D02*
X120820658Y-104719374D01*
X120820658Y-104719374D02*
X120737800Y-104677945D01*
X120737800Y-104677945D02*
X120572086Y-104636517D01*
X120572086Y-104636517D02*
X120489229Y-104595088D01*
X120489229Y-104595088D02*
X120447800Y-104553660D01*
X120447800Y-104553660D02*
X120406372Y-104470803D01*
X120406372Y-104470803D02*
X120406372Y-104387945D01*
X120406372Y-104387945D02*
X120447800Y-104305088D01*
X120447800Y-104305088D02*
X120489229Y-104263660D01*
X120489229Y-104263660D02*
X120572086Y-104222231D01*
X120572086Y-104222231D02*
X120779229Y-104222231D01*
X120779229Y-104222231D02*
X120903515Y-104263660D01*
X121276371Y-105092231D02*
X121276371Y-104222231D01*
X121276371Y-104222231D02*
X121483514Y-104222231D01*
X121483514Y-104222231D02*
X121607800Y-104263660D01*
X121607800Y-104263660D02*
X121690657Y-104346517D01*
X121690657Y-104346517D02*
X121732086Y-104429374D01*
X121732086Y-104429374D02*
X121773514Y-104595088D01*
X121773514Y-104595088D02*
X121773514Y-104719374D01*
X121773514Y-104719374D02*
X121732086Y-104885088D01*
X121732086Y-104885088D02*
X121690657Y-104967945D01*
X121690657Y-104967945D02*
X121607800Y-105050803D01*
X121607800Y-105050803D02*
X121483514Y-105092231D01*
X121483514Y-105092231D02*
X121276371Y-105092231D01*
X122104943Y-104843660D02*
X122519229Y-104843660D01*
X122022086Y-105092231D02*
X122312086Y-104222231D01*
X122312086Y-104222231D02*
X122602086Y-105092231D01*
D11*
X110237056Y-90352219D02*
X110237056Y-89352219D01*
X110237056Y-89352219D02*
X110618008Y-89352219D01*
X110618008Y-89352219D02*
X110713246Y-89399838D01*
X110713246Y-89399838D02*
X110760865Y-89447457D01*
X110760865Y-89447457D02*
X110808484Y-89542695D01*
X110808484Y-89542695D02*
X110808484Y-89685552D01*
X110808484Y-89685552D02*
X110760865Y-89780790D01*
X110760865Y-89780790D02*
X110713246Y-89828409D01*
X110713246Y-89828409D02*
X110618008Y-89876028D01*
X110618008Y-89876028D02*
X110237056Y-89876028D01*
X111237056Y-90352219D02*
X111237056Y-89685552D01*
X111237056Y-89876028D02*
X111284675Y-89780790D01*
X111284675Y-89780790D02*
X111332294Y-89733171D01*
X111332294Y-89733171D02*
X111427532Y-89685552D01*
X111427532Y-89685552D02*
X111522770Y-89685552D01*
X112237056Y-90304600D02*
X112141818Y-90352219D01*
X112141818Y-90352219D02*
X111951342Y-90352219D01*
X111951342Y-90352219D02*
X111856104Y-90304600D01*
X111856104Y-90304600D02*
X111808485Y-90209361D01*
X111808485Y-90209361D02*
X111808485Y-89828409D01*
X111808485Y-89828409D02*
X111856104Y-89733171D01*
X111856104Y-89733171D02*
X111951342Y-89685552D01*
X111951342Y-89685552D02*
X112141818Y-89685552D01*
X112141818Y-89685552D02*
X112237056Y-89733171D01*
X112237056Y-89733171D02*
X112284675Y-89828409D01*
X112284675Y-89828409D02*
X112284675Y-89923647D01*
X112284675Y-89923647D02*
X111808485Y-90018885D01*
X113141818Y-90304600D02*
X113046580Y-90352219D01*
X113046580Y-90352219D02*
X112856104Y-90352219D01*
X112856104Y-90352219D02*
X112760866Y-90304600D01*
X112760866Y-90304600D02*
X112713247Y-90256980D01*
X112713247Y-90256980D02*
X112665628Y-90161742D01*
X112665628Y-90161742D02*
X112665628Y-89876028D01*
X112665628Y-89876028D02*
X112713247Y-89780790D01*
X112713247Y-89780790D02*
X112760866Y-89733171D01*
X112760866Y-89733171D02*
X112856104Y-89685552D01*
X112856104Y-89685552D02*
X113046580Y-89685552D01*
X113046580Y-89685552D02*
X113141818Y-89733171D01*
X113570390Y-90352219D02*
X113570390Y-89685552D01*
X113570390Y-89352219D02*
X113522771Y-89399838D01*
X113522771Y-89399838D02*
X113570390Y-89447457D01*
X113570390Y-89447457D02*
X113618009Y-89399838D01*
X113618009Y-89399838D02*
X113570390Y-89352219D01*
X113570390Y-89352219D02*
X113570390Y-89447457D01*
X113998961Y-90304600D02*
X114094199Y-90352219D01*
X114094199Y-90352219D02*
X114284675Y-90352219D01*
X114284675Y-90352219D02*
X114379913Y-90304600D01*
X114379913Y-90304600D02*
X114427532Y-90209361D01*
X114427532Y-90209361D02*
X114427532Y-90161742D01*
X114427532Y-90161742D02*
X114379913Y-90066504D01*
X114379913Y-90066504D02*
X114284675Y-90018885D01*
X114284675Y-90018885D02*
X114141818Y-90018885D01*
X114141818Y-90018885D02*
X114046580Y-89971266D01*
X114046580Y-89971266D02*
X113998961Y-89876028D01*
X113998961Y-89876028D02*
X113998961Y-89828409D01*
X113998961Y-89828409D02*
X114046580Y-89733171D01*
X114046580Y-89733171D02*
X114141818Y-89685552D01*
X114141818Y-89685552D02*
X114284675Y-89685552D01*
X114284675Y-89685552D02*
X114379913Y-89733171D01*
X114856104Y-90352219D02*
X114856104Y-89685552D01*
X114856104Y-89352219D02*
X114808485Y-89399838D01*
X114808485Y-89399838D02*
X114856104Y-89447457D01*
X114856104Y-89447457D02*
X114903723Y-89399838D01*
X114903723Y-89399838D02*
X114856104Y-89352219D01*
X114856104Y-89352219D02*
X114856104Y-89447457D01*
X115475151Y-90352219D02*
X115379913Y-90304600D01*
X115379913Y-90304600D02*
X115332294Y-90256980D01*
X115332294Y-90256980D02*
X115284675Y-90161742D01*
X115284675Y-90161742D02*
X115284675Y-89876028D01*
X115284675Y-89876028D02*
X115332294Y-89780790D01*
X115332294Y-89780790D02*
X115379913Y-89733171D01*
X115379913Y-89733171D02*
X115475151Y-89685552D01*
X115475151Y-89685552D02*
X115618008Y-89685552D01*
X115618008Y-89685552D02*
X115713246Y-89733171D01*
X115713246Y-89733171D02*
X115760865Y-89780790D01*
X115760865Y-89780790D02*
X115808484Y-89876028D01*
X115808484Y-89876028D02*
X115808484Y-90161742D01*
X115808484Y-90161742D02*
X115760865Y-90256980D01*
X115760865Y-90256980D02*
X115713246Y-90304600D01*
X115713246Y-90304600D02*
X115618008Y-90352219D01*
X115618008Y-90352219D02*
X115475151Y-90352219D01*
X116237056Y-89685552D02*
X116237056Y-90352219D01*
X116237056Y-89780790D02*
X116284675Y-89733171D01*
X116284675Y-89733171D02*
X116379913Y-89685552D01*
X116379913Y-89685552D02*
X116522770Y-89685552D01*
X116522770Y-89685552D02*
X116618008Y-89733171D01*
X116618008Y-89733171D02*
X116665627Y-89828409D01*
X116665627Y-89828409D02*
X116665627Y-90352219D01*
X117856104Y-90066504D02*
X118332294Y-90066504D01*
X117760866Y-90352219D02*
X118094199Y-89352219D01*
X118094199Y-89352219D02*
X118427532Y-90352219D01*
X118760866Y-90352219D02*
X118760866Y-89685552D01*
X118760866Y-89780790D02*
X118808485Y-89733171D01*
X118808485Y-89733171D02*
X118903723Y-89685552D01*
X118903723Y-89685552D02*
X119046580Y-89685552D01*
X119046580Y-89685552D02*
X119141818Y-89733171D01*
X119141818Y-89733171D02*
X119189437Y-89828409D01*
X119189437Y-89828409D02*
X119189437Y-90352219D01*
X119189437Y-89828409D02*
X119237056Y-89733171D01*
X119237056Y-89733171D02*
X119332294Y-89685552D01*
X119332294Y-89685552D02*
X119475151Y-89685552D01*
X119475151Y-89685552D02*
X119570390Y-89733171D01*
X119570390Y-89733171D02*
X119618009Y-89828409D01*
X119618009Y-89828409D02*
X119618009Y-90352219D01*
X120094199Y-90352219D02*
X120094199Y-89352219D01*
X120094199Y-89733171D02*
X120189437Y-89685552D01*
X120189437Y-89685552D02*
X120379913Y-89685552D01*
X120379913Y-89685552D02*
X120475151Y-89733171D01*
X120475151Y-89733171D02*
X120522770Y-89780790D01*
X120522770Y-89780790D02*
X120570389Y-89876028D01*
X120570389Y-89876028D02*
X120570389Y-90161742D01*
X120570389Y-90161742D02*
X120522770Y-90256980D01*
X120522770Y-90256980D02*
X120475151Y-90304600D01*
X120475151Y-90304600D02*
X120379913Y-90352219D01*
X120379913Y-90352219D02*
X120189437Y-90352219D01*
X120189437Y-90352219D02*
X120094199Y-90304600D01*
X120998961Y-90352219D02*
X120998961Y-89685552D01*
X120998961Y-89352219D02*
X120951342Y-89399838D01*
X120951342Y-89399838D02*
X120998961Y-89447457D01*
X120998961Y-89447457D02*
X121046580Y-89399838D01*
X121046580Y-89399838D02*
X120998961Y-89352219D01*
X120998961Y-89352219D02*
X120998961Y-89447457D01*
X121856103Y-90304600D02*
X121760865Y-90352219D01*
X121760865Y-90352219D02*
X121570389Y-90352219D01*
X121570389Y-90352219D02*
X121475151Y-90304600D01*
X121475151Y-90304600D02*
X121427532Y-90209361D01*
X121427532Y-90209361D02*
X121427532Y-89828409D01*
X121427532Y-89828409D02*
X121475151Y-89733171D01*
X121475151Y-89733171D02*
X121570389Y-89685552D01*
X121570389Y-89685552D02*
X121760865Y-89685552D01*
X121760865Y-89685552D02*
X121856103Y-89733171D01*
X121856103Y-89733171D02*
X121903722Y-89828409D01*
X121903722Y-89828409D02*
X121903722Y-89923647D01*
X121903722Y-89923647D02*
X121427532Y-90018885D01*
X122332294Y-89685552D02*
X122332294Y-90352219D01*
X122332294Y-89780790D02*
X122379913Y-89733171D01*
X122379913Y-89733171D02*
X122475151Y-89685552D01*
X122475151Y-89685552D02*
X122618008Y-89685552D01*
X122618008Y-89685552D02*
X122713246Y-89733171D01*
X122713246Y-89733171D02*
X122760865Y-89828409D01*
X122760865Y-89828409D02*
X122760865Y-90352219D01*
X123094199Y-89685552D02*
X123475151Y-89685552D01*
X123237056Y-89352219D02*
X123237056Y-90209361D01*
X123237056Y-90209361D02*
X123284675Y-90304600D01*
X123284675Y-90304600D02*
X123379913Y-90352219D01*
X123379913Y-90352219D02*
X123475151Y-90352219D01*
X125046580Y-90352219D02*
X124570390Y-90352219D01*
X124570390Y-90352219D02*
X124570390Y-89352219D01*
X125379914Y-90352219D02*
X125379914Y-89685552D01*
X125379914Y-89352219D02*
X125332295Y-89399838D01*
X125332295Y-89399838D02*
X125379914Y-89447457D01*
X125379914Y-89447457D02*
X125427533Y-89399838D01*
X125427533Y-89399838D02*
X125379914Y-89352219D01*
X125379914Y-89352219D02*
X125379914Y-89447457D01*
X126284675Y-89685552D02*
X126284675Y-90495076D01*
X126284675Y-90495076D02*
X126237056Y-90590314D01*
X126237056Y-90590314D02*
X126189437Y-90637933D01*
X126189437Y-90637933D02*
X126094199Y-90685552D01*
X126094199Y-90685552D02*
X125951342Y-90685552D01*
X125951342Y-90685552D02*
X125856104Y-90637933D01*
X126284675Y-90304600D02*
X126189437Y-90352219D01*
X126189437Y-90352219D02*
X125998961Y-90352219D01*
X125998961Y-90352219D02*
X125903723Y-90304600D01*
X125903723Y-90304600D02*
X125856104Y-90256980D01*
X125856104Y-90256980D02*
X125808485Y-90161742D01*
X125808485Y-90161742D02*
X125808485Y-89876028D01*
X125808485Y-89876028D02*
X125856104Y-89780790D01*
X125856104Y-89780790D02*
X125903723Y-89733171D01*
X125903723Y-89733171D02*
X125998961Y-89685552D01*
X125998961Y-89685552D02*
X126189437Y-89685552D01*
X126189437Y-89685552D02*
X126284675Y-89733171D01*
X126760866Y-90352219D02*
X126760866Y-89352219D01*
X127189437Y-90352219D02*
X127189437Y-89828409D01*
X127189437Y-89828409D02*
X127141818Y-89733171D01*
X127141818Y-89733171D02*
X127046580Y-89685552D01*
X127046580Y-89685552D02*
X126903723Y-89685552D01*
X126903723Y-89685552D02*
X126808485Y-89733171D01*
X126808485Y-89733171D02*
X126760866Y-89780790D01*
X127522771Y-89685552D02*
X127903723Y-89685552D01*
X127665628Y-89352219D02*
X127665628Y-90209361D01*
X127665628Y-90209361D02*
X127713247Y-90304600D01*
X127713247Y-90304600D02*
X127808485Y-90352219D01*
X127808485Y-90352219D02*
X127903723Y-90352219D01*
D10*
X110140000Y-104171431D02*
X110430000Y-105041431D01*
X110430000Y-105041431D02*
X110720000Y-104171431D01*
X111009999Y-105041431D02*
X111009999Y-104171431D01*
X111009999Y-104171431D02*
X111217142Y-104171431D01*
X111217142Y-104171431D02*
X111341428Y-104212860D01*
X111341428Y-104212860D02*
X111424285Y-104295717D01*
X111424285Y-104295717D02*
X111465714Y-104378574D01*
X111465714Y-104378574D02*
X111507142Y-104544288D01*
X111507142Y-104544288D02*
X111507142Y-104668574D01*
X111507142Y-104668574D02*
X111465714Y-104834288D01*
X111465714Y-104834288D02*
X111424285Y-104917145D01*
X111424285Y-104917145D02*
X111341428Y-105000003D01*
X111341428Y-105000003D02*
X111217142Y-105041431D01*
X111217142Y-105041431D02*
X111009999Y-105041431D01*
X111879999Y-105041431D02*
X111879999Y-104171431D01*
X111879999Y-104171431D02*
X112087142Y-104171431D01*
X112087142Y-104171431D02*
X112211428Y-104212860D01*
X112211428Y-104212860D02*
X112294285Y-104295717D01*
X112294285Y-104295717D02*
X112335714Y-104378574D01*
X112335714Y-104378574D02*
X112377142Y-104544288D01*
X112377142Y-104544288D02*
X112377142Y-104668574D01*
X112377142Y-104668574D02*
X112335714Y-104834288D01*
X112335714Y-104834288D02*
X112294285Y-104917145D01*
X112294285Y-104917145D02*
X112211428Y-105000003D01*
X112211428Y-105000003D02*
X112087142Y-105041431D01*
X112087142Y-105041431D02*
X111879999Y-105041431D01*
X115719943Y-104263660D02*
X115637086Y-104222231D01*
X115637086Y-104222231D02*
X115512800Y-104222231D01*
X115512800Y-104222231D02*
X115388514Y-104263660D01*
X115388514Y-104263660D02*
X115305657Y-104346517D01*
X115305657Y-104346517D02*
X115264228Y-104429374D01*
X115264228Y-104429374D02*
X115222800Y-104595088D01*
X115222800Y-104595088D02*
X115222800Y-104719374D01*
X115222800Y-104719374D02*
X115264228Y-104885088D01*
X115264228Y-104885088D02*
X115305657Y-104967945D01*
X115305657Y-104967945D02*
X115388514Y-105050803D01*
X115388514Y-105050803D02*
X115512800Y-105092231D01*
X115512800Y-105092231D02*
X115595657Y-105092231D01*
X115595657Y-105092231D02*
X115719943Y-105050803D01*
X115719943Y-105050803D02*
X115761371Y-105009374D01*
X115761371Y-105009374D02*
X115761371Y-104719374D01*
X115761371Y-104719374D02*
X115595657Y-104719374D01*
X116134228Y-105092231D02*
X116134228Y-104222231D01*
X116134228Y-104222231D02*
X116631371Y-105092231D01*
X116631371Y-105092231D02*
X116631371Y-104222231D01*
X117045657Y-105092231D02*
X117045657Y-104222231D01*
X117045657Y-104222231D02*
X117252800Y-104222231D01*
X117252800Y-104222231D02*
X117377086Y-104263660D01*
X117377086Y-104263660D02*
X117459943Y-104346517D01*
X117459943Y-104346517D02*
X117501372Y-104429374D01*
X117501372Y-104429374D02*
X117542800Y-104595088D01*
X117542800Y-104595088D02*
X117542800Y-104719374D01*
X117542800Y-104719374D02*
X117501372Y-104885088D01*
X117501372Y-104885088D02*
X117459943Y-104967945D01*
X117459943Y-104967945D02*
X117377086Y-105050803D01*
X117377086Y-105050803D02*
X117252800Y-105092231D01*
X117252800Y-105092231D02*
X117045657Y-105092231D01*
X112786371Y-100717031D02*
X113324943Y-100717031D01*
X113324943Y-100717031D02*
X113034943Y-101048460D01*
X113034943Y-101048460D02*
X113159228Y-101048460D01*
X113159228Y-101048460D02*
X113242086Y-101089888D01*
X113242086Y-101089888D02*
X113283514Y-101131317D01*
X113283514Y-101131317D02*
X113324943Y-101214174D01*
X113324943Y-101214174D02*
X113324943Y-101421317D01*
X113324943Y-101421317D02*
X113283514Y-101504174D01*
X113283514Y-101504174D02*
X113242086Y-101545603D01*
X113242086Y-101545603D02*
X113159228Y-101587031D01*
X113159228Y-101587031D02*
X112910657Y-101587031D01*
X112910657Y-101587031D02*
X112827800Y-101545603D01*
X112827800Y-101545603D02*
X112786371Y-101504174D01*
X113573514Y-100717031D02*
X113863514Y-101587031D01*
X113863514Y-101587031D02*
X114153514Y-100717031D01*
X114567799Y-101587031D02*
X114484942Y-101545603D01*
X114484942Y-101545603D02*
X114443513Y-101504174D01*
X114443513Y-101504174D02*
X114402085Y-101421317D01*
X114402085Y-101421317D02*
X114402085Y-101172745D01*
X114402085Y-101172745D02*
X114443513Y-101089888D01*
X114443513Y-101089888D02*
X114484942Y-101048460D01*
X114484942Y-101048460D02*
X114567799Y-101007031D01*
X114567799Y-101007031D02*
X114692085Y-101007031D01*
X114692085Y-101007031D02*
X114774942Y-101048460D01*
X114774942Y-101048460D02*
X114816371Y-101089888D01*
X114816371Y-101089888D02*
X114857799Y-101172745D01*
X114857799Y-101172745D02*
X114857799Y-101421317D01*
X114857799Y-101421317D02*
X114816371Y-101504174D01*
X114816371Y-101504174D02*
X114774942Y-101545603D01*
X114774942Y-101545603D02*
X114692085Y-101587031D01*
X114692085Y-101587031D02*
X114567799Y-101587031D01*
D12*
X115397771Y-86915273D02*
X115635866Y-86915273D01*
X115635866Y-86915273D02*
X115754914Y-86974797D01*
X115754914Y-86974797D02*
X115873961Y-87093845D01*
X115873961Y-87093845D02*
X115933485Y-87331940D01*
X115933485Y-87331940D02*
X115933485Y-87748607D01*
X115933485Y-87748607D02*
X115873961Y-87986702D01*
X115873961Y-87986702D02*
X115754914Y-88105750D01*
X115754914Y-88105750D02*
X115635866Y-88165273D01*
X115635866Y-88165273D02*
X115397771Y-88165273D01*
X115397771Y-88165273D02*
X115278723Y-88105750D01*
X115278723Y-88105750D02*
X115159676Y-87986702D01*
X115159676Y-87986702D02*
X115100152Y-87748607D01*
X115100152Y-87748607D02*
X115100152Y-87331940D01*
X115100152Y-87331940D02*
X115159676Y-87093845D01*
X115159676Y-87093845D02*
X115278723Y-86974797D01*
X115278723Y-86974797D02*
X115397771Y-86915273D01*
X116469200Y-88165273D02*
X116469200Y-86915273D01*
X116469200Y-86915273D02*
X116945390Y-86915273D01*
X116945390Y-86915273D02*
X117064438Y-86974797D01*
X117064438Y-86974797D02*
X117123961Y-87034321D01*
X117123961Y-87034321D02*
X117183485Y-87153369D01*
X117183485Y-87153369D02*
X117183485Y-87331940D01*
X117183485Y-87331940D02*
X117123961Y-87450988D01*
X117123961Y-87450988D02*
X117064438Y-87510511D01*
X117064438Y-87510511D02*
X116945390Y-87570035D01*
X116945390Y-87570035D02*
X116469200Y-87570035D01*
X117540628Y-86915273D02*
X118254914Y-86915273D01*
X117897771Y-88165273D02*
X117897771Y-86915273D01*
X119207295Y-87331940D02*
X119207295Y-88165273D01*
X118909676Y-86855750D02*
X118612057Y-87748607D01*
X118612057Y-87748607D02*
X119385866Y-87748607D01*
X120100152Y-86915273D02*
X120219199Y-86915273D01*
X120219199Y-86915273D02*
X120338247Y-86974797D01*
X120338247Y-86974797D02*
X120397771Y-87034321D01*
X120397771Y-87034321D02*
X120457295Y-87153369D01*
X120457295Y-87153369D02*
X120516818Y-87391464D01*
X120516818Y-87391464D02*
X120516818Y-87689083D01*
X120516818Y-87689083D02*
X120457295Y-87927178D01*
X120457295Y-87927178D02*
X120397771Y-88046226D01*
X120397771Y-88046226D02*
X120338247Y-88105750D01*
X120338247Y-88105750D02*
X120219199Y-88165273D01*
X120219199Y-88165273D02*
X120100152Y-88165273D01*
X120100152Y-88165273D02*
X119981104Y-88105750D01*
X119981104Y-88105750D02*
X119921580Y-88046226D01*
X119921580Y-88046226D02*
X119862057Y-87927178D01*
X119862057Y-87927178D02*
X119802533Y-87689083D01*
X119802533Y-87689083D02*
X119802533Y-87391464D01*
X119802533Y-87391464D02*
X119862057Y-87153369D01*
X119862057Y-87153369D02*
X119921580Y-87034321D01*
X119921580Y-87034321D02*
X119981104Y-86974797D01*
X119981104Y-86974797D02*
X120100152Y-86915273D01*
X121290628Y-86915273D02*
X121409675Y-86915273D01*
X121409675Y-86915273D02*
X121528723Y-86974797D01*
X121528723Y-86974797D02*
X121588247Y-87034321D01*
X121588247Y-87034321D02*
X121647771Y-87153369D01*
X121647771Y-87153369D02*
X121707294Y-87391464D01*
X121707294Y-87391464D02*
X121707294Y-87689083D01*
X121707294Y-87689083D02*
X121647771Y-87927178D01*
X121647771Y-87927178D02*
X121588247Y-88046226D01*
X121588247Y-88046226D02*
X121528723Y-88105750D01*
X121528723Y-88105750D02*
X121409675Y-88165273D01*
X121409675Y-88165273D02*
X121290628Y-88165273D01*
X121290628Y-88165273D02*
X121171580Y-88105750D01*
X121171580Y-88105750D02*
X121112056Y-88046226D01*
X121112056Y-88046226D02*
X121052533Y-87927178D01*
X121052533Y-87927178D02*
X120993009Y-87689083D01*
X120993009Y-87689083D02*
X120993009Y-87391464D01*
X120993009Y-87391464D02*
X121052533Y-87153369D01*
X121052533Y-87153369D02*
X121112056Y-87034321D01*
X121112056Y-87034321D02*
X121171580Y-86974797D01*
X121171580Y-86974797D02*
X121290628Y-86915273D01*
X122897770Y-88165273D02*
X122183485Y-88165273D01*
X122540628Y-88165273D02*
X122540628Y-86915273D01*
X122540628Y-86915273D02*
X122421580Y-87093845D01*
X122421580Y-87093845D02*
X122302532Y-87212892D01*
X122302532Y-87212892D02*
X122183485Y-87272416D01*
D13*
%TO.C,R1*%
X116620000Y-95746359D02*
X116620000Y-96053641D01*
X117380000Y-95746359D02*
X117380000Y-96053641D01*
D14*
%TO.C,H1*%
X110204000Y-87630000D02*
G75*
G02*
X106204000Y-87630000I-2000000J0D01*
G01*
X106204000Y-87630000D02*
G75*
G02*
X110204000Y-87630000I2000000J0D01*
G01*
D13*
%TO.C,J1*%
X105979000Y-93310000D02*
X105979000Y-97190000D01*
X107949000Y-92140000D02*
X110449000Y-92140000D01*
X107949000Y-98360000D02*
X110449000Y-98360000D01*
X110449000Y-92140000D02*
X110449000Y-93190000D01*
X110449000Y-93190000D02*
X111439000Y-93190000D01*
X110449000Y-98360000D02*
X110449000Y-97310000D01*
D14*
%TO.C,H4*%
X131794000Y-87630000D02*
G75*
G02*
X127794000Y-87630000I-2000000J0D01*
G01*
X127794000Y-87630000D02*
G75*
G02*
X131794000Y-87630000I2000000J0D01*
G01*
D13*
%TO.C,R6*%
X125546359Y-99420000D02*
X125853641Y-99420000D01*
X125546359Y-100180000D02*
X125853641Y-100180000D01*
%TO.C,C3*%
X111117836Y-99331100D02*
X110902164Y-99331100D01*
X111117836Y-100051100D02*
X110902164Y-100051100D01*
D14*
%TO.C,H3*%
X110204000Y-102870000D02*
G75*
G02*
X106204000Y-102870000I-2000000J0D01*
G01*
X106204000Y-102870000D02*
G75*
G02*
X110204000Y-102870000I2000000J0D01*
G01*
D13*
%TO.C,U2*%
X114080000Y-97181100D02*
X113280000Y-97181100D01*
X114080000Y-97181100D02*
X114880000Y-97181100D01*
X114080000Y-100301100D02*
X113280000Y-100301100D01*
X114080000Y-100301100D02*
X114880000Y-100301100D01*
X112780000Y-97231100D02*
X112540000Y-96901100D01*
X113020000Y-96901100D01*
X112780000Y-97231100D01*
G36*
X112780000Y-97231100D02*
G01*
X112540000Y-96901100D01*
X113020000Y-96901100D01*
X112780000Y-97231100D01*
G37*
%TO.C,R4*%
X120720000Y-96953641D02*
X120720000Y-96646359D01*
X121480000Y-96953641D02*
X121480000Y-96646359D01*
D14*
%TO.C,H2*%
X131794000Y-102870000D02*
G75*
G02*
X127794000Y-102870000I-2000000J0D01*
G01*
X127794000Y-102870000D02*
G75*
G02*
X131794000Y-102870000I2000000J0D01*
G01*
D13*
%TO.C,C1*%
X116640000Y-94007836D02*
X116640000Y-93792164D01*
X117360000Y-94007836D02*
X117360000Y-93792164D01*
%TO.C,C2*%
X116320000Y-99113264D02*
X116320000Y-99328936D01*
X117040000Y-99113264D02*
X117040000Y-99328936D01*
%TO.C,R3*%
X120720000Y-93546359D02*
X120720000Y-93853641D01*
X121480000Y-93546359D02*
X121480000Y-93853641D01*
%TO.C,J2*%
X127549000Y-92140000D02*
X127549000Y-93190000D01*
X127549000Y-97310000D02*
X126559000Y-97310000D01*
X127549000Y-98360000D02*
X127549000Y-97310000D01*
X130049000Y-92140000D02*
X127549000Y-92140000D01*
X130049000Y-98360000D02*
X127549000Y-98360000D01*
X132019000Y-97190000D02*
X132019000Y-93310000D01*
%TO.C,U1*%
X118349000Y-94050000D02*
X119649000Y-94050000D01*
X118349000Y-96450000D02*
X119649000Y-96450000D01*
X118049000Y-94100000D02*
X117809000Y-93770000D01*
X118289000Y-93770000D01*
X118049000Y-94100000D01*
G36*
X118049000Y-94100000D02*
G01*
X117809000Y-93770000D01*
X118289000Y-93770000D01*
X118049000Y-94100000D01*
G37*
%TD*%
%LPC*%
D15*
%TO.C,R1*%
X117000000Y-95390000D03*
X117000000Y-96410000D03*
%TD*%
D16*
%TO.C,H1*%
X108204000Y-87630000D03*
%TD*%
D17*
%TO.C,J1*%
X110664000Y-93750000D03*
X110664000Y-94750000D03*
X110664000Y-95750000D03*
X110664000Y-96750000D03*
D18*
X106789000Y-92450000D03*
X106789000Y-98050000D03*
%TD*%
D16*
%TO.C,H4*%
X129794000Y-87630000D03*
%TD*%
D19*
%TO.C,R6*%
X125190000Y-99800000D03*
X126210000Y-99800000D03*
%TD*%
D20*
%TO.C,C3*%
X111490000Y-99691100D03*
X110530000Y-99691100D03*
%TD*%
D16*
%TO.C,H3*%
X108204000Y-102870000D03*
%TD*%
D21*
%TO.C,U2*%
X112942500Y-97791100D03*
X112942500Y-99691100D03*
X115217500Y-98741100D03*
%TD*%
D22*
%TO.C,R4*%
X121100000Y-97310000D03*
X121100000Y-96290000D03*
%TD*%
D16*
%TO.C,H2*%
X129794000Y-102870000D03*
%TD*%
D23*
%TO.C,C1*%
X117000000Y-94380000D03*
X117000000Y-93420000D03*
%TD*%
D24*
%TO.C,C2*%
X116680000Y-98741100D03*
X116680000Y-99701100D03*
%TD*%
D15*
%TO.C,R3*%
X121100000Y-93190000D03*
X121100000Y-94210000D03*
%TD*%
D25*
%TO.C,J2*%
X127334000Y-96750000D03*
X127334000Y-95750000D03*
X127334000Y-94750000D03*
X127334000Y-93750000D03*
D26*
X131209000Y-98050000D03*
X131209000Y-92450000D03*
%TD*%
D27*
%TO.C,U1*%
X118139000Y-94500000D03*
X118139000Y-95000000D03*
X118139000Y-95500000D03*
X118139000Y-96000000D03*
X119859000Y-96000000D03*
X119859000Y-95500000D03*
X119859000Y-95000000D03*
X119859000Y-94500000D03*
%TD*%
D28*
%TO.C,J3*%
X126614000Y-102870000D03*
X124074000Y-102870000D03*
X121534000Y-102870000D03*
X118994000Y-102870000D03*
X116454000Y-102870000D03*
X113914000Y-102870000D03*
D29*
X111374000Y-102870000D03*
%TD*%
%LPD*%
M02*
